<?xml version="1.0" standalone="no"?>
<!DOCTYPE svg PUBLIC "-//W3C//DTD SVG 1.1//EN" "http://www.w3.org/Graphics/SVG/1.1/DTD/svg11.dtd" >
<!--
2013-9-30: Created.
-->
<svg>
<metadata>
Created by iconfont
</metadata>
<defs>

<font id="font_family" horiz-adv-x="1024" >
  <font-face
    font-family="font_family"
    font-weight="500"
    font-stretch="normal"
    units-per-em="1024"
    ascent="896"
    descent="-128"
  />
    <missing-glyph />
    
    <glyph glyph-name="app" unicode="&#59096;" d="M608 160c0-12.8 0-12.8 0 0 0-70.4 64-121.6 134.4-121.6s121.6 57.6 121.6 121.6c0 70.4-57.6 134.4-121.6 134.4H608v-134.4c0-6.4 0-6.4 0 0z m320 0c0-108.8-83.2-192-192-192s-192 83.2-192 192v192h192c108.8 0 192-83.2 192-192z m-832 448c0 108.8 83.2 192 192 192s192-83.2 192-192v-192h-192c-108.8 0-192 83.2-192 192z m192-640c-108.8 0-192 83.2-192 192s83.2 192 192 192h192v-192c0-108.8-83.2-192-192-192z m448 448h-192v192c0 108.8 83.2 192 192 192s192-83.2 192-192-83.2-192-192-192z"  horiz-adv-x="1024" />

    
    <glyph glyph-name="appName" unicode="&#59097;" d="M870.4 102.39999999999998c19.2 12.8 25.6 25.6 25.6 44.8V518.4c0 19.2-25.6 32-38.4 25.6L563.2 377.6c-12.8-6.4-25.6-25.6-25.6-44.8v-364.8c0-19.2 25.6-32 38.4-25.6l294.4 160z m-716.8 6.4c-12.8 12.8-25.6 25.6-25.6 51.2V518.4c0 19.2 25.6 32 38.4 25.6l288-166.4c19.2-12.8 25.6-25.6 25.6-44.8v-364.8c0-19.2-19.2-32-38.4-25.6l-288 166.4z m697.6 505.6L512 416 172.8 614.4c-19.2 12.8-19.2 38.4 0 51.2l313.6 160c19.2 6.4 38.4 6.4 51.2 0l313.6-160c19.2-12.8 19.2-38.4 0-51.2z"  horiz-adv-x="1024" />

    
    <glyph glyph-name="changeMarket" unicode="&#59098;" d="M896 128H128V704h768v-576z m-320-89.6H448v51.2h128v-51.2z m384 691.2c0 25.6-12.8 38.4-32 38.4h-832c-19.2 0-32-12.8-32-38.4V64H0v-25.6c0-25.6 12.8-38.4 32-38.4h966.4c19.2 0 32 12.8 32 38.4V64h-64L960 729.6zM595.2 339.20000000000005L512 595.2 416 390.4l-51.2 64-89.6-64 25.6-19.2 57.6 38.4 70.4-83.2L512 499.2l89.6-256 76.8 179.2 32-76.8 32 6.4-64 153.6-83.2-166.4z"  horiz-adv-x="1030" />

    
    <glyph glyph-name="arrow" unicode="&#59099;" d="M1536 384l-364.8-320h-115.2L1408 384l-352 320h115.2L1536 384z m-262.4 0l-364.8-320H0V704h908.8l364.8-320z"  horiz-adv-x="1536" />

    
    <glyph glyph-name="contacts" unicode="&#59100;" d="M934.4 224h-19.2c-44.8 0-76.8-32-76.8-76.8 0-32 25.6-64 51.2-70.4-25.6-38.4-57.6-70.4-96-96-12.8 25.6-38.4 44.8-70.4 44.8-44.8 0-76.8-32-76.8-76.8v-12.8c6.4-38.4 38.4-64 76.8-64 19.2 0 32 6.4 44.8 6.4 108.8 38.4 192 128 217.6 243.2 0 6.4 6.4 12.8 6.4 25.6 0 38.4-25.6 64-57.6 76.8zM524.8 454.4c-96 0-172.8 76.8-172.8 172.8 0 96 76.8 172.8 172.8 172.8s172.8-76.8 172.8-172.8c-6.4-96-83.2-172.8-172.8-172.8z m268.8-192c25.6 0 51.2 19.2 51.2 51.2 0 12.8-6.4 32-19.2 38.4-38.4 32-76.8 51.2-128 70.4 57.6 51.2 96 121.6 96 204.8 0 147.2-121.6 268.8-268.8 268.8-153.6 0-275.2-121.6-275.2-268.8 0-83.2 38.4-153.6 96-204.8a486.4 486.4 0 0 1-313.6-454.4c0-25.6 19.2-51.2 51.2-51.2 25.6 0 44.8 19.2 44.8 51.2 0 217.6 172.8 390.4 390.4 390.4 89.6 0 172.8-32 236.8-76.8 12.8-12.8 25.6-19.2 38.4-19.2z"  horiz-adv-x="1024" />

    
    <glyph glyph-name="configure" unicode="&#59101;" d="M691.2 217.60000000000002c-25.6 0-51.2-12.8-64-38.4H160v-70.4h473.6c12.8-19.2 38.4-38.4 64-38.4s51.2 12.8 64 38.4h108.8v70.4h-108.8c-12.8 19.2-38.4 38.4-70.4 38.4zM512 460.8c-25.6 0-51.2-12.8-64-38.4H160v-70.4H448c12.8-19.2 38.4-38.4 64-38.4s51.2 12.8 64 38.4h288v64H576c-12.8 25.6-38.4 44.8-64 44.8z m249.6 204.8c-12.8 19.2-38.4 38.4-64 38.4s-51.2-12.8-70.4-38.4H160v-70.4h473.6c12.8-19.2 38.4-38.4 64-38.4s51.2 12.8 64 38.4h108.8V665.6h-108.8z"  horiz-adv-x="1024" />

    
    <glyph glyph-name="concerned" unicode="&#59102;" d="M512 576c-57.6 0-108.8 51.2-108.8 108.8 0 57.6 44.8 108.8 108.8 108.8s108.8-44.8 108.8-108.8C620.8 627.2 569.6 576 512 576z m204.8-115.2c-12.8 12.8-38.4 12.8-51.2 0l-192-198.4L384 345.6c-12.8 12.8-38.4 12.8-51.2 0-6.4-6.4-12.8-12.8-12.8-25.6s6.4-19.2 12.8-25.6l108.8-108.8c6.4-6.4 19.2-12.8 25.6-12.8 6.4 0 19.2 6.4 25.6 12.8l224 224c12.8 12.8 12.8 38.4 0 51.2zM352 620.8C377.6 556.8 441.6 512 512 512s134.4 44.8 160 108.8h32c70.4 0 128-57.6 128-128V128c0-70.4-57.6-128-128-128H320c-70.4 0-128 57.6-128 128V492.8c0 70.4 57.6 128 128 128h32z"  horiz-adv-x="1024" />

    
    <glyph glyph-name="lock" unicode="&#59089;" d="M543.979154 230.83360500000003c25.583323 12.791661 44.770815 38.374984 44.770815 70.354138 0 44.770815-38.374984 83.145799-83.1458 83.1458-44.770815 0-83.145799-38.374984-83.145799-83.1458 0-31.979154 12.791661-57.562476 38.374984-70.354138v-76.749968c0-6.395831 6.395831-12.791661 12.791662-12.791662h51.166645c6.395831 0 12.791661 6.395831 12.791662 12.791662l6.395831 76.749968zM761.437398 640.166771v-95.93746c83.145799-76.749969 134.312445-185.479091 127.916614-313.395706-12.791661-191.874922-166.291599-345.374859-358.16652-358.16652-223.854075-12.791661-409.333166 159.895768-409.333166 383.749843 0 115.124953 51.166646 217.458244 127.916615 287.812383V640.166771c0 140.708276 115.124953 255.833229 255.833228 255.833229 147.104107 0 255.833229-108.729122 255.833229-255.833229z m-127.916614 0c0 51.166646-44.770815 127.916614-127.916615 127.916615-70.354138 0-127.916614-57.562476-127.916614-127.916615v-25.583323c38.374984 19.187492 83.145799 25.583323 127.916614 25.583323s89.54163-6.395831 127.916615-19.187492V640.166771z"  horiz-adv-x="1024" />

    
    <glyph glyph-name="defaultRule" unicode="&#59107;" d="M928 780.8c0 12.8-6.4 25.6-6.4 32-12.8 19.2-38.4 25.6-51.2 6.4-76.8-89.6-198.4-102.4-313.6-38.4-38.4 19.2-76.8 25.6-115.2 25.6-44.8 0-89.6-6.4-128-25.6-19.2 0-32-6.4-44.8-12.8-6.4 0-12.8-6.4-19.2-6.4l-64-38.4h-38.4l-6.4 25.6-44.8-19.2L428.8-64l44.8 19.2-102.4 249.6c12.8 32 44.8 57.6 76.8 70.4 51.2 25.6 128 32 217.6 6.4 96-25.6 166.4-19.2 217.6 19.2 19.2 12.8 32 25.6 38.4 32l6.4 6.4V742.4v38.4z"  horiz-adv-x="1024" />

    
    <glyph glyph-name="IPL" unicode="&#59108;" d="M832 512H192V576h640v-64z m0-320H192v64h640v-64z m-576-192H128v64h128v-64zM128 384h128v-64H128V384z m0 320h128v-64H128V704z m832-128V832H64v-256h64v-64H64v-256h64v-64H64v-256h896v256h-64v64h64V512h-64V576h64z"  horiz-adv-x="1024" />

    
    <glyph glyph-name="EMAIL" unicode="&#59109;" d="M512 224l128 134.4 364.8-352c-6.4-6.4-19.2-12.8-32-12.8H44.8c-12.8 0-25.6 6.4-32 12.8L384 364.79999999999995l128-140.8zM12.8 19.200000000000045c-6.4 6.4-12.8 19.2-12.8 32V716.8c0 12.8 6.4 25.6 12.8 38.4l313.6-326.4-313.6-409.6z m0 736c12.8 6.4 25.6 12.8 38.4 12.8h928c12.8 0 25.6-6.4 32-12.8L512 332.79999999999995 12.8 755.2z m684.8-332.8l313.6 326.4c6.4-6.4 12.8-19.2 12.8-32v-665.6c0-12.8-6.4-25.6-12.8-38.4l-313.6 409.6z"  horiz-adv-x="1024" />

    
    <glyph glyph-name="navChangeMarket" unicode="&#59110;" d="M576 704v-192h192c-25.6 89.6-102.4 166.4-192 192zM512 640C403.2 640 320 556.8 320 448s83.2-192 192-192 192 83.2 192 192H512V640zM70.4 832h876.8c44.8 0 76.8-32 76.8-76.8v-614.4c0-44.8-32-76.8-70.4-76.8H70.4C32 64 0 96 0 140.79999999999995V755.2C0 800 32 832 70.4 832z m25.6-896c-19.2 0-32 12.8-32 32s12.8 32 32 32h825.6c19.2 0 32-12.8 32-32s-6.4-32-25.6-32h-832z"  horiz-adv-x="1024" />

    
    <glyph glyph-name="form" unicode="&#59111;" d="M544 320v-256H960V320H544zM64 320v-256h416V320H64z m480 320v-256H960V640H544zM64 640v-256h416V640H64zM0 768h1024v-768H0V768z"  horiz-adv-x="1024" />

    
    <glyph glyph-name="navAlarmStatistics" unicode="&#59112;" d="M576 352h448c0-96-64-230.4-128-294.4L576 352z m384 64H512v448c249.6 0 448-198.4 448-448z m-512 384v-448l320-294.4c-83.2-96-185.6-153.6-320-153.6-243.2 0-448 198.4-448 448s211.2 448 448 448z"  horiz-adv-x="1024" />

    
    <glyph glyph-name="navAccessList" unicode="&#59113;" d="M768 217.60000000000002c0-64 32-121.6 83.2-140.8V-128h83.2v211.2c51.2 19.2 83.2 76.8 83.2 140.8V320h-256v-102.4z m-384 0c0-64 32-121.6 83.2-140.8V-128h83.2v211.2c51.2 19.2 83.2 76.8 83.2 140.8V320H384v-102.4z m-384 0c0-64 32-121.6 83.2-140.8V-128h83.2v211.2c57.6 19.2 89.6 70.4 89.6 134.4V320H0v-102.4zM940.8 851.2c0 19.2-25.6 44.8-44.8 44.8s-44.8-25.6-44.8-44.8V640H768v-256h256V640h-83.2V851.2z m-384 0C556.8 870.4 531.2 896 512 896c-19.2 0-44.8-25.6-44.8-44.8V640H384v-256h256V640H556.8V851.2z m-384 0C172.8 870.4 147.2 896 128 896c-19.2 0-44.8-25.6-44.8-44.8V640H0v-256h256V640H172.8V851.2z"  horiz-adv-x="1024" />

    
    <glyph glyph-name="DONGDONG" unicode="&#59114;" d="M505.6 249.60000000000002c172.8 0 320 70.4 377.6 179.2 6.4 6.4 0 19.2-6.4 19.2s-19.2 0-19.2-6.4c-51.2-96-185.6-160-345.6-160-160 0-300.8 64-345.6 160-12.8 6.4-19.2 12.8-32 6.4-6.4-6.4-6.4-12.8-6.4-19.2 57.6-108.8 204.8-179.2 377.6-179.2zM768 531.2c19.2-32 44.8-51.2 70.4-38.4 19.2 12.8 25.6 44.8 12.8 76.8-19.2 32-44.8 51.2-70.4 38.4-25.6-6.4-25.6-44.8-12.8-76.8z m-524.8 0c12.8 32 12.8 70.4-12.8 76.8-19.2 12.8-51.2-6.4-64-38.4-19.2-32-12.8-64 12.8-76.8 19.2-6.4 44.8 6.4 64 38.4z m396.8-57.6c0 25.6-64 51.2-134.4 51.2-76.8 0-134.4-25.6-134.4-51.2s64-51.2 134.4-51.2c76.8 0 134.4 25.6 134.4 51.2z m384-38.4c0-140.8-96-268.8-236.8-339.2 0 0-19.2-12.8-19.2-44.8 0-32 0-64 12.8-115.2-147.2 12.8-236.8 96-236.8 96h-25.6c-281.6 0-512 179.2-512 396.8C0 652.8 230.4 832 512 832s512-179.2 512-396.8z"  horiz-adv-x="1024" />

    
    <glyph glyph-name="MOBILE" unicode="&#59115;" d="M704 416c0 38.4 32 64 64 64 38.4 0 64-25.6 64-64s-32-64-64-64-64 25.6-64 64z m-192-64c-38.4 0-64 25.6-64 64s32 64 64 64c38.4 0 64-25.6 64-64s-25.6-64-64-64z m-256 0c-38.4 0-64 25.6-64 64 0 32 25.6 64 64 64s64-25.6 64-64c0-32-32-64-64-64z m-134.4 448C38.4 800 0 761.6 0 678.4v-460.8c0-83.2 38.4-121.6 121.6-121.6h121.6v-89.6c0-12.8 6.4-32 19.2-38.4 6.4-6.4 12.8-6.4 19.2-6.4 6.4 0 12.8 0 25.6 6.4l224 121.6h384c83.2 0 121.6 38.4 121.6 121.6V678.4c0 83.2-38.4 121.6-121.6 121.6H121.6z"  horiz-adv-x="1036" />

    
    <glyph glyph-name="navAlarm" unicode="&#59116;" d="M512 864C300.8 864 128 697.6 128 499.2v-403.2h192v384h64v-384h512V499.2C896 697.6 723.2 864 512 864z m-384-832h768v-64H128v64z m-128-64h1024v-64H0v64z"  horiz-adv-x="1024" />

    
    <glyph glyph-name="IP" unicode="&#59117;" d="M806.4 288h-576c-19.2 0-32 12.8-32 32s12.8 32 32 32h582.4c19.2 0 32-12.8 32-32-6.4-19.2-19.2-32-38.4-32z m-672 512c-38.4 0-64-32-64-64v-505.6c0-38.4 25.6-64 64-64h179.2c19.2 0 32-12.8 32-32 0-6.4-6.4-19.2-6.4-25.6l-57.6-89.6c-6.4-12.8-6.4-38.4 12.8-44.8 6.4 0 12.8-6.4 19.2-6.4h441.6c19.2 0 32 12.8 32 32 0 6.4 0 12.8-6.4 12.8l-57.6 89.6c-12.8 12.8-12.8 32 0 44.8 6.4 6.4 12.8 6.4 19.2 6.4h166.4c38.4 0 64 32 64 64v512c0 38.4-25.6 64-64 64L134.4 800z"  horiz-adv-x="1024" />

    
    <glyph glyph-name="establish" unicode="&#59118;" d="M352 256h384c19.2 0 32-12.8 32-32s-12.8-32-32-32h-384c-19.2 0-32 12.8-32 32s12.8 32 32 32zM640 896l256-256v-64H576V896h64zM544 448c19.2 0 32-12.8 32-32v-384c0-19.2-12.8-32-32-32s-32 12.8-32 32v384c0 19.2 12.8 32 32 32zM832 448V640h64v-192h-64zM192-128H128V896h512v-64H192v-960z"  horiz-adv-x="1024" />

    
    <glyph glyph-name="navOperation" unicode="&#59119;" d="M256 512h128v-256l256 512H0v-768h256V512z m384 0l-256-512h640V768h-256v-512h-128V512z"  horiz-adv-x="1024" />

    
    <glyph glyph-name="navMore" unicode="&#59120;" d="M748.8 307.20000000000005c-44.8 0-76.8 38.4-76.8 76.8s38.4 76.8 76.8 76.8c44.8 0 83.2-32 83.2-76.8s-38.4-76.8-83.2-76.8z m-230.4 0c-44.8 0-83.2 32-83.2 76.8S473.6 460.8 512 460.8c44.8 0 76.8-38.4 76.8-76.8 6.4-44.8-25.6-76.8-70.4-76.8z m-236.8 0c-44.8 0-83.2 32-83.2 76.8s38.4 76.8 76.8 76.8c44.8 0 76.8-38.4 76.8-76.8 6.4-44.8-25.6-76.8-70.4-76.8zM512 896C230.4 896 0 665.6 0 384s230.4-512 512-512 512 230.4 512 512-230.4 512-512 512z"  horiz-adv-x="1024" />

    
    <glyph glyph-name="more" unicode="&#59121;" d="M512 42.66666699999996l-401.066667 401.066666-76.8-76.8L512-115.20000000000005l477.866667 477.866667-76.8 76.8L512 42.66666699999996zM989.866667 802.133333L913.066667 878.933333 512 482.133333 110.933333 883.2 34.133333 802.133333 512 324.266667 989.866667 802.133333z"  horiz-adv-x="1024" />

    
    <glyph glyph-name="navTemplate" unicode="&#59122;" d="M320-96h659.2c25.6 0 44.8 19.2 44.8 38.4V544H320v-640z m-320 38.4c0-19.2 19.2-38.4 44.8-38.4H256v640H0v-601.6zM979.2 864H44.8c-25.6 0-44.8-19.2-44.8-44.8v-211.2h1024V819.2c0 25.6-19.2 44.8-44.8 44.8z"  horiz-adv-x="1024" />

    
    <glyph glyph-name="navSys" unicode="&#59123;" d="M486.4-51.200000000000045L1024-128V300.79999999999995H486.4v-352z m0 460.8H1024V896L486.4 787.2v-377.6zM0 409.6h377.6V768L0 697.6v-288z m0-377.6l377.6-57.6V300.79999999999995H0v-326.4 57.6z"  horiz-adv-x="1024" />

    
    <glyph glyph-name="navAlarmTrend" unicode="&#59124;" d="M256.2592-19.200000000000045c0-25.6-25.6-44.8-51.2-44.8H51.4592c-25.6 0-51.2 19.2-51.2 44.8v160c0 32 25.6 51.2 51.2 51.2h153.6c25.6 0 51.2-19.2 51.2-44.8v-166.4z m384 6.4c0-32-25.6-51.2-51.2-51.2H435.4592c-25.6 0-51.2 25.6-51.2 51.2V268.79999999999995c0 25.6 25.6 51.2 51.2 51.2h153.6c25.6 0 51.2-25.6 51.2-51.2v-281.6z m384 0c0-32-25.6-51.2-51.2-51.2h-153.6c-25.6 0-51.2 25.6-51.2 51.2V396.8c0 25.6 25.6 51.2 51.2 51.2h153.6c25.6 0 51.2-25.6 51.2-51.2v-409.6zM870.6592 672L544.2592 486.4c-25.6-12.8-51.2-6.4-64 19.2L403.4592 646.4l-332.8-256c-19.2-12.8-44.8-6.4-64 19.2-12.8 25.6-6.4 57.6 12.8 76.8L397.0592 768c12.8 6.4 25.6 12.8 38.4 6.4 12.8 0 19.2-6.4 25.6-25.6l76.8-147.2L825.8592 768l-19.2 44.8L1024.2592 832l-134.4-192-19.2 32z"  horiz-adv-x="1024" />

    
    <glyph glyph-name="navProbe" unicode="&#59125;" d="M1003.350839 193.68862000000001c38.307893 127.692978 12.769298 268.155254-76.615787 383.078935L594.733309 327.766247l-51.077192 63.846489c19.153947 31.923245 19.153947 76.615787-6.384649 108.539032-31.923245 44.692542-95.769734 57.46184-134.077627 25.538595-44.692542-38.307893-57.46184-95.769734-19.153946-140.462276 25.538596-31.923245 76.615787-44.692542 114.92368-31.923244l51.077191-63.846489-332.001743-249.001308c153.231574-191.539467 434.156126-223.462712 632.080242-76.615787 44.692542 38.307893 83.000436 76.615787 114.92368 127.692978l25.538596 38.307894 12.769298 63.846489zM186.115778 532.075012l89.385085-25.538595c19.153947 44.692542 44.692542 83.000436 76.615787 102.154382 31.923245 19.153947 76.615787 31.923245 127.692978 31.923245V729.999128c-76.615787 0-134.077627-12.769298-185.154818-51.077191-51.077191-31.923245-83.000436-76.615787-108.539032-146.846925z m-95.769733-6.384649c31.923245 95.769734 76.615787 166.000872 146.846925 210.693414 70.231138 44.692542 159.616223 70.231138 268.155254 63.846489V889.615351c-127.692978 0-236.23201-25.538596-325.617095-83.000436-83.000436-51.077191-146.846925-140.462276-178.770169-255.385956l89.385085-25.538596z"  horiz-adv-x="1024" />

    
    <glyph glyph-name="navRule" unicode="&#59126;" d="M416 294.4L128 563.2v-537.6l288 268.8z m608-390.4H0V864L512 384l512 480v-960z"  horiz-adv-x="1024" />

    
    <glyph glyph-name="result" unicode="&#59127;" d="M896 864h-179.2v-51.2H896c19.2 0 38.4-19.2 38.4-38.4V0c0-19.2-19.2-38.4-38.4-38.4H128c-19.2 0-38.4 19.2-38.4 38.4V774.4c0 19.2 19.2 38.4 38.4 38.4h172.8V864H128C76.8 864 32 825.6 32 774.4V0c0-51.2 44.8-89.6 96-89.6h768c51.2 0 96 38.4 96 89.6V774.4c0 51.2-44.8 89.6-96 89.6zM281.6 409.6l-38.4-38.4 198.4-198.4 352 345.6-38.4 38.4L448 249.60000000000002 281.6 409.6zM646.4 864H377.6v-57.6H640l6.4 57.6z"  horiz-adv-x="1024" />

    
    <glyph glyph-name="ruleDetails" unicode="&#59128;" d="M320 691.2v-96h640V691.2H320z m0-358.4h640V435.2H320v-102.4z m0-256h640v96H320v-96zM128 192c-38.4 0-64-25.6-64-64 0-32 32-64 64-64s64 32 64 64c0 38.4-25.6 64-64 64z m0 512c-38.4 0-64-25.6-64-64s25.6-64 64-64 64 25.6 64 64-25.6 64-64 64z m0-256c-38.4 0-64-25.6-64-64s25.6-64 64-64 64 25.6 64 64-25.6 64-64 64z"  horiz-adv-x="1024" />

    
    <glyph glyph-name="simulatedMatch" unicode="&#59130;" d="M627.2-64l-57.6 57.6 166.4 166.4c70.4 83.2 70.4 204.8-12.8 281.6-76.8 70.4-192 70.4-262.4 0l-38.4-44.8-57.6 57.6 38.4 44.8c108.8 102.4 281.6 96 384-12.8 96-108.8 96-268.8 0-377.6L627.2-64z m-192 256c-153.6 0-275.2 121.6-275.2 275.2 0 76.8 25.6 147.2 76.8 198.4L409.6 832l57.6-57.6-172.8-166.4c-70.4-83.2-70.4-204.8 12.8-281.6 76.8-70.4 192-70.4 262.4 0l38.4 44.8 57.6-57.6-38.4-38.4c-51.2-57.6-121.6-83.2-192-83.2z"  horiz-adv-x="1024" />

    
    <glyph glyph-name="time" unicode="&#59131;" d="M512-57.60000000000002c-243.2 0-441.6 198.4-441.6 441.6S268.8 825.6 512 825.6s441.6-198.4 441.6-441.6-198.4-441.6-441.6-441.6zM512 896C230.4 896 0 665.6 0 384s230.4-512 512-512 512 230.4 512 512-230.4 512-512 512z m38.4-204.8H473.6v-320l224-224 51.2 51.2-198.4 204.8V691.2z"  horiz-adv-x="1024" />

    
    <glyph glyph-name="notice" unicode="&#59132;" d="M729.6 550.4l224 224c12.8 12.8 32 12.8 44.8 0 12.8-12.8 12.8-32 0-44.8l-224-224c-12.8-12.8-32-12.8-44.8 0-12.8 6.4-12.8 32 0 44.8z m-57.6-134.4h320c19.2 0 32-12.8 32-32s-12.8-32-32-32h-320c-19.2 0-32 12.8-32 32s12.8 32 32 32z m102.4-153.6l224-224c12.8-12.8 12.8-32 0-44.8-12.8-12.8-32-12.8-44.8 0l-224 224c-12.8 12.8-12.8 32 0 44.8 6.4 12.8 32 12.8 44.8 0zM512 32c0-89.6-32-89.6-96 0l-160 192H121.6c-44.8 0-57.6 12.8-57.6 51.2V492.8c0 38.4 12.8 51.2 57.6 51.2H256l166.4 192C480 819.2 512 819.2 512 736v-704z m-288 576H83.2C25.6 608 0 582.4 0 531.2v-288c0-51.2 32-76.8 83.2-76.8h134.4L416-64c64-57.6 160-32 160 57.6V774.4C576 864 480 889.6 416 832l-192-224z"  horiz-adv-x="1024" />

    
    <glyph glyph-name="undisturb" unicode="&#59133;" d="M870.4 384l140.8 140.8c12.8 12.8 12.8 38.4 0 57.6s-38.4 12.8-51.2-6.4l-140.8-140.8L672 576c-12.8 12.8-38.4 12.8-57.6 0-12.8-12.8-12.8-38.4 0-57.6L761.6 384l-128-128c-12.8-12.8-12.8-38.4 0-57.6 12.8-12.8 38.4-12.8 57.6 0l128 128 128-128c12.8-12.8 38.4-12.8 57.6 0 12.8 12.8 12.8 38.4 0 57.6l-134.4 128zM512 32c0-89.6-32-89.6-96 0l-160 192H121.6c-44.8 0-57.6 12.8-57.6 51.2V492.8c0 38.4 12.8 51.2 57.6 51.2H256l166.4 192C480 819.2 512 819.2 512 736v-704z m-288 576H83.2C25.6 608 0 582.4 0 531.2v-288c0-51.2 32-76.8 83.2-76.8h134.4L416-64c64-57.6 160-32 160 57.6V774.4C576 864 480 889.6 416 832l-192-224z"  horiz-adv-x="1024" />

    
    <glyph glyph-name="refresh" unicode="&#59134;" d="M864 640c-6.4 12.8-12.8 19.2-19.2 32-44.8 57.6-96 96-160 128h-6.4c-12.8 6.4-19.2 6.4-32 12.8-6.4 0-6.4 0-12.8 6.4-6.4 0-19.2 6.4-25.6 6.4-6.4 0-12.8 0-12.8 6.4H518.4 512c-89.6 0-172.8-25.6-249.6-83.2-19.2-12.8-25.6-51.2-12.8-70.4 19.2-25.6 51.2-32 70.4-12.8 64 38.4 128 57.6 192 57.6h32c6.4 0 12.8 0 25.6-6.4h12.8c6.4 0 12.8-6.4 19.2-6.4h6.4c12.8-6.4 25.6-6.4 32-12.8 51.2-19.2 89.6-57.6 121.6-96 44.8-57.6 76.8-134.4 76.8-217.6h-76.8s-6.4 0-6.4-6.4l128-198.4h12.8l128 198.4V384h-76.8c-6.4 96-32 179.2-83.2 256z m-358.4-595.2H467.2c-6.4 0-12.8 0-19.2 6.4h-12.8c-6.4 0-12.8 6.4-19.2 6.4 0 0-6.4 0-6.4 6.4-6.4 0-19.2 0-25.6 6.4h-6.4c-6.4 6.4-19.2 6.4-25.6 12.8-25.6 12.8-51.2 32-76.8 57.6l-19.2 19.2s0 6.4-6.4 6.4c-38.4 64-64 134.4-64 217.6h83.2v6.4l-128 198.4h-6.4H128L0 390.4V384h76.8c0-96 25.6-179.2 76.8-256 6.4-6.4 12.8-12.8 12.8-19.2l6.4-6.4c6.4-12.8 19.2-19.2 25.6-25.6 25.6-32 64-57.6 96-76.8 12.8-6.4 19.2-12.8 32-12.8 0 0 6.4 0 6.4-6.4 6.4-6.4 19.2-6.4 25.6-12.8 6.4 0 6.4 0 12.8-6.4 6.4 0 19.2-6.4 25.6-6.4 6.4 0 12.8 0 19.2-6.4h6.4c6.4 0 19.2 0 25.6-6.4H499.2c89.6 0 172.8 25.6 243.2 83.2 25.6 19.2 32 51.2 12.8 76.8-19.2 25.6-51.2 32-70.4 12.8-44.8-51.2-108.8-70.4-179.2-70.4z"  horiz-adv-x="1024" />

    
    <glyph glyph-name="unlock" unicode="&#59135;" d="M677.972454 230.819479v-76.751598c0-6.395967-6.395967-12.791933-12.791933-12.791933h-51.167733c-6.395967 0-12.791933 6.395967-12.791933 12.791933v76.751598c-25.583866 12.791933-38.375799 38.375799-38.375799 70.355632 0 44.771766 38.375799 83.147565 83.147565 83.147566 44.771766 0 83.147565-38.375799 83.147565-83.147566-6.395967-31.979833-25.583866-57.563699-51.167732-70.355632zM511.677323 614.577472V640.161338c0 70.355632-63.959665 255.838662-255.838661 255.838662S0 704.121004 0 640.161338s38.375799-63.959665 76.751599-63.959665c25.583866 0 38.375799 19.1879 51.167732 63.959665 0 19.1879 19.1879 127.919331 127.919331 127.919331 51.167732 0 127.919331-25.583866 127.919331-127.919331v-95.939498C307.006394 473.866208 255.838662 371.53074300000003 255.838662 256.40334600000006c0-217.462862 185.48303-396.549926 409.341859-383.757993 191.878996 12.791933 345.382193 166.29513 358.174126 358.174126 12.791933 223.858829-166.29513 409.341859-383.757993 409.341859-44.771766 0-89.543532-6.395967-127.919331-25.583866z"  horiz-adv-x="1024" />

    
    <glyph glyph-name="VOICE" unicode="&#59137;" d="M512 192c70.4 0 134.4 25.6 179.2 76.8 51.2 44.8 76.8 108.8 76.8 179.2V640c0 140.8-115.2 256-256 256S256 780.8 256 640v-192c0-140.8 115.2-256 256-256z m448 192v19.2c0 25.6-25.6 44.8-51.2 44.8s-44.8-19.2-44.8-44.8v-12.8c-19.2-160-153.6-288-313.6-288h-64c-166.4 0-300.8 128-313.6 288v19.2c-12.8 19.2-32 38.4-57.6 38.4-32 0-51.2-19.2-51.2-51.2V384c0-102.4 38.4-198.4 115.2-268.8C249.6 38.39999999999998 345.6 0 448 0v-64H288c-19.2 0-32-12.8-32-32s12.8-32 32-32h448c19.2 0 32 12.8 32 32s-12.8 32-32 32H576v64c102.4 0 198.4 38.4 268.8 115.2C921.6 185.60000000000002 960 281.6 960 384z"  horiz-adv-x="1024" />

    
    <glyph glyph-name="WECHAT" unicode="&#59138;" d="M832 224c38.4 0 64 25.6 64 64s-25.6 64-64 64-64-25.6-64-64 32-64 64-64z m-256 0c38.4 0 64 25.6 64 64s-25.6 64-64 64-64-25.6-64-64 32-64 64-64z m448 38.4c0-83.2-51.2-153.6-128-204.8l25.6-89.6-102.4 57.6c-38.4-6.4-70.4-19.2-108.8-19.2-172.8 0-307.2 115.2-307.2 262.4s134.4 262.4 307.2 262.4c166.4 0 313.6-121.6 313.6-268.8zM326.4 185.60000000000002c-32 0-57.6 12.8-89.6 19.2l-128-64 38.4 108.8C51.2 313.6 0 390.4 0 492.8c0 172.8 166.4 307.2 364.8 307.2 153.6 0 288-76.8 345.6-192C492.8 608 320 448 320 256c0-25.6 6.4-44.8 6.4-70.4z"  horiz-adv-x="1024" />

    
    <glyph glyph-name="uwc-logo" unicode="&#59139;" d="M614.4 6.399999999999977c6.4 0 12.8 0 19.2-6.4 6.4-6.4 6.4-19.2 6.4-19.2-6.4-64-64-108.8-128-108.8s-115.2 44.8-128 108.8c0 6.4 0 19.2 6.4 19.2 6.4 6.4 12.8 6.4 19.2 6.4h204.8z m44.8-102.4c19.2 32 32 64 32 102.4v6.4h83.2c6.4 0 12.8 0 12.8-6.4 6.4-6.4 6.4-12.8 6.4-19.2-6.4-51.2-51.2-89.6-102.4-89.6-6.4 0-19.2 0-32 6.4z m-326.4 102.4v-6.4c6.4-38.4 19.2-70.4 32-102.4-12.8-6.4-25.6-6.4-38.4-6.4-51.2 0-96 38.4-102.4 89.6 0 6.4 0 12.8 6.4 19.2 0 6.4 6.4 6.4 19.2 6.4h83.2z m582.4 243.2c25.6-25.6 76.8-70.4 38.4-147.2-6.4-12.8-25.6-25.6-38.4-25.6H115.2c-19.2 0-32 6.4-38.4 25.6-44.8 83.2 6.4 121.6 38.4 147.2 12.8 12.8 25.6 19.2 25.6 32 19.2 32 25.6 108.8 32 153.6v19.2c12.8 76.8 38.4 172.8 96 249.6 44.8 57.6 96 96 160 115.2C428.8 864 467.2 896 512 896c44.8 0 83.2-32 83.2-76.8 64-19.2 115.2-57.6 160-115.2 57.6-83.2 83.2-179.2 96-243.2v-19.2c6.4-44.8 12.8-121.6 32-153.6 6.4-19.2 19.2-25.6 32-38.4z"  horiz-adv-x="1024" />

    
    <glyph glyph-name="tips" unicode="&#59140;" d="M512 563.2c-12.8 0-32 6.4-44.8 19.2-6.4 12.8-12.8 25.6-12.8 44.8 0 12.8 6.4 32 19.2 44.8 6.4 6.4 25.6 12.8 38.4 12.8 12.8 0 32-6.4 44.8-19.2 6.4-6.4 12.8-25.6 12.8-38.4 0-12.8-6.4-32-19.2-44.8-6.4-12.8-25.6-19.2-38.4-19.2z m0-480c-32 0-57.6 25.6-57.6 57.6V384c0 32 25.6 57.6 57.6 57.6s57.6-25.6 57.6-57.6v-243.2c0-32-25.6-57.6-57.6-57.6zM512 838.4C262.4 838.4 64 633.6 64 384c0-249.6 204.8-454.4 448-454.4s448 204.8 448 454.4C960 633.6 761.6 838.4 512 838.4zM512-128c-281.6 0-512 230.4-512 512s230.4 512 512 512 512-230.4 512-512-230.4-512-512-512z"  horiz-adv-x="1024" />

    
    <glyph glyph-name="noMsg" unicode="&#59142;" d="M888.177778 551.822222c8.533333 0 14.222222 2.844444 17.066666 11.377778 2.844444 5.688889 2.844444 14.222222 0 19.911111-2.844444 5.688889-11.377778 11.377778-17.066666 11.377778-11.377778 0-19.911111-8.533333-19.911111-19.911111 0-14.222222 8.533333-22.755556 19.911111-22.755556z m0-19.911111c-14.222222 0-28.444444 8.533333-34.133334 19.911111-8.533333 11.377778-8.533333 28.444444 0 39.822222 8.533333 11.377778 19.911111 19.911111 34.133334 19.911112 22.755556 0 39.822222-17.066667 39.822222-39.822223 0-22.755556-17.066667-39.822222-39.822222-39.822222zM40.533333 469.333333c8.533333 0 14.222222 2.844444 17.066667 11.377778 2.844444 5.688889 2.844444 14.222222 0 19.911111-2.844444 5.688889-11.377778 11.377778-17.066667 11.377778-11.377778 0-19.911111-8.533333-19.911111-19.911111 0-14.222222 8.533333-22.755556 19.911111-22.755556z m0-19.911111c-14.222222 0-28.444444 8.533333-34.133333 19.911111-8.533333 11.377778-8.533333 28.444444 0 39.822223s19.911111 19.911111 34.133333 19.911111c22.755556 0 39.822222-17.066667 39.822223-39.822223 2.844444-22.755556-17.066667-39.822222-39.822223-39.822222z m261.688889-82.488889c0 8.533333 5.688889 14.222222 14.222222 14.222223h96.711112c8.533333 0 14.222222-5.688889 14.222222-14.222223s-5.688889-14.222222-14.222222-14.222222H313.6c-2.844444 0-8.533333 0-8.533333 2.844445-2.844444 5.688889-2.844444 8.533333-2.844445 11.377777z m0 68.266667c0 8.533333 5.688889 14.222222 14.222222 14.222222h219.022223c8.533333 0 14.222222-5.688889 14.222222-14.222222s-5.688889-14.222222-14.222222-14.222222H313.6c-2.844444 0-8.533333 2.844444-8.533333 2.844444-2.844444 5.688889-2.844444 8.533333-2.844445 11.377778z m0 68.266667c0 8.533333 5.688889 14.222222 14.222222 14.222222h150.755556c8.533333 0 14.222222-5.688889 14.222222-14.222222s-5.688889-14.222222-14.222222-14.222223H313.6c-2.844444 0-8.533333 0-8.533333 2.844445-2.844444 5.688889-2.844444 8.533333-2.844445 11.377778z m142.222222-321.422223c25.6 25.6 25.6 71.111111 0 96.711112-25.6 25.6-71.111111 25.6-96.711111 0-25.6-25.6-25.6-71.111111 0-96.711112 28.444444-25.6 71.111111-25.6 96.711111 0zM14.933333 93.866667c0 8.533333 5.688889 14.222222 14.222223 14.222222h82.488888c8.533333 0 14.222222-5.688889 14.222223-14.222222s-5.688889-14.222222-14.222223-14.222223H29.155556c-2.844444 0-8.533333 2.844444-8.533334 2.844445-5.688889 5.688889-5.688889 8.533333-5.688889 11.377778zM154.311111 696.8888890000001h19.911111c5.688889 0 11.377778-5.688889 11.377778-11.377778s-5.688889-11.377778-11.377778-11.377778h-19.911111v-19.911111c0-5.688889-5.688889-11.377778-11.377778-11.377778-2.844444 0-5.688889 0-8.533333 2.844445 0 2.844444-2.844444 5.688889-2.844444 8.533333v22.755556h-19.911112c-2.844444 0-5.688889 0-8.533333 2.844444-2.844444 0-2.844444 2.844444-2.844444 5.688889 0 5.688889 5.688889 11.377778 11.377777 11.377778h19.911112v22.755555c0 5.688889 5.688889 8.533333 11.377777 8.533334s11.377778-5.688889 11.377778-11.377778V696.8888890000001z m839.111111-386.844445h19.911111c5.688889 0 11.377778-5.688889 11.377778-11.377777s-5.688889-11.377778-11.377778-11.377778h-19.911111v-19.911111c0-5.688889-5.688889-11.377778-11.377778-11.377778-2.844444 0-5.688889 0-8.533333 2.844444-2.844444 2.844444-2.844444 5.688889-2.844444 8.533334v19.911111h-19.911111c-2.844444 0-5.688889 0-8.533334 2.844444-2.844444 2.844444-2.844444 5.688889-2.844444 8.533334 0 5.688889 5.688889 11.377778 11.377778 11.377777h19.911111v19.911112c0 5.688889 5.688889 11.377778 11.377777 11.377777s11.377778-5.688889 11.377778-11.377777v-19.911112zM654.933333 176.35555599999998h39.822223c14.222222 0 28.444444 11.377778 28.444444 28.444444V600.177778c0 14.222222-11.377778 28.444444-28.444444 28.444444H370.488889c-14.222222 0-28.444444-11.377778-28.444445-28.444444v-14.222222h258.844445c14.222222 0 28.444444-5.688889 39.822222-17.066667 11.377778-11.377778 17.066667-22.755556 17.066667-39.822222L654.933333 176.35555599999998z m-96.711111-68.266667h42.666667c14.222222 0 28.444444 11.377778 28.444444 28.444444V531.911111c0 14.222222-11.377778 25.6-25.6 25.6H273.777778c-14.222222 0-25.6-11.377778-25.6-25.6v-395.377778c0-14.222222 11.377778-28.444444 28.444444-28.444444H484.266667l-5.688889 5.688889c-5.688889 5.688889-8.533333 17.066667-8.533334 25.6l-14.222222 14.222222c-39.822222-28.444444-96.711111-22.755556-128 14.222222-34.133333 36.977778-31.288889 93.866667 5.688889 130.844445 34.133333 34.133333 91.022222 36.977778 130.844445 5.688889 36.977778-34.133333 42.666667-88.177778 14.222222-130.844445l14.222222-14.222222c8.533333 2.844444 19.911111 0 25.6-8.533333l39.822222-42.666667z m-51.2-28.444445h-341.333333c-2.844444 0-8.533333 2.844444-8.533333 2.844445-2.844444 2.844444-2.844444 5.688889-2.844445 8.533333 0 8.533333 5.688889 14.222222 14.222222 14.222222h62.577778c-5.688889 8.533333-8.533333 17.066667-8.533333 28.444445v398.222222c0 14.222222 5.688889 28.444444 17.066666 39.822222 11.377778 11.377778 22.755556 17.066667 39.822223 17.066667H313.6v14.222222c0 14.222222 5.688889 28.444444 17.066667 39.822222 11.377778 5.688889 25.6 11.377778 39.822222 11.377778h327.111111c14.222222 0 28.444444-5.688889 39.822222-17.066666 11.377778-11.377778 17.066667-22.755556 17.066667-39.822223v-395.377777c0-8.533333-2.844444-19.911111-8.533333-28.444445h73.955555c8.533333 0 14.222222-5.688889 14.222222-14.222222s-5.688889-14.222222-14.222222-14.222222H654.933333v-14.222223c0-8.533333-2.844444-19.911111-8.533333-28.444444h8.533333c8.533333 0 14.222222-5.688889 14.222223-14.222222s-5.688889-14.222222-14.222223-14.222222h-71.111111c5.688889-11.377778 5.688889-22.755556-2.844444-34.133334-5.688889-5.688889-11.377778-8.533333-19.911111-8.533333-8.533333 0-14.222222 2.844444-19.911111 8.533333l-34.133334 39.822222z m-403.911111 170.666667h14.222222c2.844444 0 5.688889-2.844444 5.688889-5.688889s-2.844444-5.688889-5.688889-5.688889h-14.222222v-14.222222c0-2.844444-2.844444-5.688889-5.688889-5.688889s-2.844444 0-5.688889 2.844445c0 0-2.844444 2.844444-2.844444 5.688889V241.777778h-14.222222c-2.844444 0-5.688889 2.844444-5.688889 5.688889s2.844444 5.688889 5.688889 5.688889h14.222222v14.222222c0 2.844444 2.844444 5.688889 5.688889 5.688889s5.688889-2.844444 5.688889-5.688889v-17.066667z"  horiz-adv-x="1024" />

    
    <glyph glyph-name="navWechat" unicode="&#59143;" d="M710.4 102.39999999999998c19.2-19.2 38.4-32 64-38.4 6.4 0 19.2-6.4 38.4-6.4 32-6.4 51.2-38.4 38.4-70.4-6.4-32-38.4-51.2-70.4-44.8-25.6 6.4-38.4 25.6-44.8 44.8-6.4 12.8-6.4 38.4-12.8 57.6-6.4 19.2-19.2 32-32 44.8-6.4 0-6.4 6.4-6.4 12.8s6.4 12.8 12.8 12.8 12.8-6.4 12.8-12.8z m-32 134.4c25.6 6.4 32 19.2 51.2 32 0 6.4 6.4 12.8 12.8 12.8s12.8-6.4 12.8-12.8-6.4-12.8-6.4-12.8c-12.8-12.8-25.6-32-32-44.8-6.4-19.2-6.4-44.8-12.8-57.6-6.4-32-38.4-51.2-70.4-44.8-32 6.4-51.2 38.4-44.8 76.8 6.4 19.2 25.6 38.4 51.2 44.8l38.4 6.4z m57.6 198.4c-44.8-38.4-38.4-83.2-44.8-115.2 0-19.2-25.6-44.8-51.2-44.8-96 0-134.4-76.8-115.2-121.6 6.4-19.2 19.2-57.6 38.4-64-89.6-32-185.6-25.6-281.6 0-12.8-6.4-64-44.8-83.2-51.2H192c-19.2-6.4-38.4-6.4-51.2 6.4-25.6 12.8-32 38.4-25.6 64 12.8 19.2 12.8 44.8 12.8 64-76.8 64-128 166.4-128 275.2 0 211.2 185.6 384 422.4 384 230.4 0 422.4-172.8 422.4-384v-12.8c-12.8 12.8-64 32-108.8 0z m153.6-204.8c-19.2 19.2-25.6 25.6-44.8 38.4-12.8 0-51.2 6.4-70.4 12.8-12.8 12.8-38.4 38.4-32 70.4 6.4 32 38.4 51.2 70.4 44.8 25.6-6.4 38.4-25.6 44.8-44.8 6.4-12.8 6.4-38.4 12.8-57.6 6.4-19.2 19.2-32 32-44.8 6.4 0 6.4-6.4 6.4-12.8s-6.4-12.8-12.8-12.8c0-6.4-6.4 0-6.4 6.4z m96-121.6l-44.8-12.8c-25.6-6.4-44.8-19.2-64-38.4 0-6.4-6.4-12.8-12.8-12.8s-12.8 6.4-12.8 12.8 6.4 12.8 6.4 12.8c12.8 12.8 25.6 32 32 44.8 6.4 19.2 6.4 44.8 12.8 57.6 6.4 32 38.4 51.2 70.4 44.8 32-6.4 51.2-38.4 44.8-70.4 0-6.4-12.8-25.6-32-38.4z"  horiz-adv-x="1024" />

    
    <glyph glyph-name="unconcerned" unicode="&#59144;" d="M556.8 294.4V409.6c0 19.2-19.2 38.4-44.8 38.4s-44.8-19.2-44.8-38.4v-128c0-12.8 6.4-25.6 19.2-38.4l6.4-6.4 134.4-134.4c19.2-19.2 44.8-19.2 57.6 0 19.2 19.2 19.2 44.8 0 57.6l-128 134.4zM512 576c-57.6 0-108.8 51.2-108.8 108.8 0 57.6 44.8 108.8 108.8 108.8s108.8-44.8 108.8-108.8C620.8 627.2 569.6 576 512 576z m-160 44.8C377.6 556.8 441.6 512 512 512s134.4 44.8 160 108.8h32c70.4 0 128-57.6 128-128V128c0-70.4-57.6-128-128-128H320c-70.4 0-128 57.6-128 128V492.8c0 70.4 57.6 128 128 128h32z"  horiz-adv-x="1024" />

    


  </font>
</defs>
</svg>
