<?xml version="1.0" standalone="no"?>
<!DOCTYPE svg PUBLIC "-//W3C//DTD SVG 1.1//EN" "http://www.w3.org/Graphics/SVG/1.1/DTD/svg11.dtd" >
<!--
2013-9-30: Created.
-->
<svg>
<metadata>
Created by iconfont
</metadata>
<defs>

<font id="font_family" horiz-adv-x="1024" >
  <font-face
    font-family="font_family"
    font-weight="500"
    font-stretch="normal"
    units-per-em="1024"
    ascent="896"
    descent="-128"
  />
    <missing-glyph />
    
    <glyph glyph-name="appAll" unicode="&#58844;" d="M512 814.08L139.264 599.04v-430.08L512-46.08000000000004l372.736 215.04v430.08L512 814.08z m0 81.92l444.416-256v-512L512-128 67.584 128v512L512 896z m-40.96-507.904l-190.464 108.544c-20.48 12.288-26.624 36.864-14.336 55.296 12.288 20.48 36.864 26.624 55.296 14.336l190.464-108.544 190.464 108.544c20.48 12.288 45.056 4.096 55.296-14.336 12.288-20.48 4.096-45.056-14.336-55.296L552.96 388.096V158.72000000000003c0-22.528-18.432-40.96-40.96-40.96s-40.96 18.432-40.96 40.96V388.096z"  horiz-adv-x="1024" />

    
    <glyph glyph-name="addNode" unicode="&#58845;" d="M544 128c-19.2 0-32-12.8-32-32v-128c0-19.2 12.8-32 32-32h384c19.2 0 32 12.8 32 32v128c0 19.2-12.8 32-32 32h-384z m-448 704c-19.2 0-32-12.8-32-32s12.8-32 32-32h384c19.2 0 32 12.8 32 32S499.2 832 480 832h-384zM768 512V672c0 19.2 12.8 32 32 32s32-12.8 32-32V512h160c19.2 0 32-12.8 32-32s-12.8-32-32-32H832v-160c0-19.2-12.8-32-32-32s-32 12.8-32 32V448H608c-19.2 0-32 12.8-32 32s12.8 32 32 32H768z m-576-512h256v160c0 19.2 12.8 32 32 32h512c19.2 0 32-12.8 32-32v-256c0-19.2-12.8-32-32-32h-512c-19.2 0-32 12.8-32 32V-64H160c-19.2 0-32 12.8-32 32V704H32C12.8 704 0 716.8 0 736v128C0 883.2 12.8 896 32 896h512c19.2 0 32-12.8 32-32v-128c0-19.2-12.8-32-32-32H192v-704z"  horiz-adv-x="1024" />

    
    <glyph glyph-name="colonyParameter" unicode="&#58846;" d="M256 454.4V128h64V454.4c38.4 12.8 64 51.2 64 89.6C384 595.2 339.2 640 288 640S192 595.2 192 544c0-44.8 25.6-76.8 64-89.6z m448-140.8c-38.4-12.8-64-51.2-64-89.6 0-51.2 44.8-96 96-96s96 44.8 96 96c0 44.8-25.6 76.8-64 89.6V640h-64v-326.4z m-224-51.2V128h64V262.4c38.4 12.8 64 51.2 64 89.6s-25.6 76.8-64 89.6V640h-64v-198.4c-38.4-12.8-64-51.2-64-89.6s25.6-76.8 64-89.6zM512 896c281.6 0 512-230.4 512-512s-230.4-512-512-512-512 230.4-512 512 230.4 512 512 512z"  horiz-adv-x="1024" />

    
    <glyph glyph-name="appParameters" unicode="&#58847;" d="M768 576H512V640h256v-64z m0-128H512V512h256v-64z m0-192H512V320h256v-64z m0-128H512v64h256v-64zM448 448H256V640h192v-192z m0-320H256V320h192v-192zM512 896C230.4 896 0 665.6 0 384s230.4-512 512-512 512 230.4 512 512-230.4 512-512 512z"  horiz-adv-x="1024" />

    
    <glyph glyph-name="batchAdjustCapacity" unicode="&#58848;" d="M64 32v320h179.2l128-128h281.6l128 128H960v-320H64z m108.8 704h684.8l108.8-320H768l-121.6-128h-256l-128 128H64l108.8 320z m-38.4 64L0 416v-448h1024v448l-128 384H134.4z"  horiz-adv-x="1024" />

    
    <glyph glyph-name="editMemory" unicode="&#58851;" d="M640 832v-544l32-96 32 96V832h-64zM576 896h192v-640l-96-192L576 256V896z m256-128h64l128-320v-576H0V448l134.4 320H512v-64H172.8L64 448h192l128-192h128v-64H358.4l-128 192H64v-448h896V384h-128V448h128l-108.8 256H832V768z"  horiz-adv-x="1024" />

    
    <glyph glyph-name="consloe" unicode="&#58852;" d="M288 672c-19.2 0-32 12.8-32 32s12.8 32 32 32 32-12.8 32-32-12.8-32-32-32z m128 0c-19.2 0-32 12.8-32 32s12.8 32 32 32 32-12.8 32-32-12.8-32-32-32z m-256 0c-19.2 0-32 12.8-32 32s12.8 32 32 32 32-12.8 32-32-12.8-32-32-32zM128 832c-38.4 0-64-25.6-64-64v-192h896V768c0 38.4-25.6 64-64 64H128z m12.8-556.8l128 102.4c12.8 12.8 32 6.4 44.8-6.4 6.4-6.4 6.4-25.6 0-32l-6.4-6.4-102.4-83.2 102.4-96c12.8-6.4 12.8-25.6 6.4-32l-6.4-6.4c-12.8-12.8-32-12.8-44.8 0l-128 121.6c-6.4 0-6.4 12.8-6.4 19.2 0 6.4 0 12.8 12.8 19.2z m249.6-128l128 224c6.4 12.8 25.6 19.2 38.4 6.4s19.2-25.6 12.8-44.8l-128-224c-6.4-6.4-19.2-12.8-25.6-12.8-6.4 0-12.8 0-19.2 6.4-6.4 12.8-19.2 25.6-6.4 44.8z m326.4 185.6c-12.8 12.8-19.2 32-6.4 38.4 12.8 12.8 32 19.2 44.8 6.4l128-102.4c6.4 0 12.8-12.8 12.8-19.2 0-6.4-6.4-19.2-6.4-25.6l-128-121.6c-12.8-12.8-32-12.8-44.8 0-12.8 12.8-12.8 32 0 44.8l102.4 96-102.4 83.2zM960 512H64v-512c0-38.4 25.6-64 64-64h768c38.4 0 64 25.6 64 64V512z m64 0v-512c0-70.4-57.6-128-128-128H128c-70.4 0-128 57.6-128 128V768C0 838.4 57.6 896 128 896h768c70.4 0 128-57.6 128-128v-256z"  horiz-adv-x="1024" />

    
    <glyph glyph-name="expansionOrder" unicode="&#58853;" d="M163.84 793.6h696.32c34.816 0 61.44-26.624 61.44-61.44v-696.32c0-34.816-26.624-61.44-61.44-61.44H163.84c-34.816 0-61.44 26.624-61.44 61.44V732.16c0 34.816 26.624 61.44 61.44 61.44z m550.912-534.528L839.68 384V691.2c0 12.288-8.192 20.48-20.48 20.48H204.8c-12.288 0-20.48-8.192-20.48-20.48v-614.4c0-12.288 8.192-20.48 20.48-20.48h307.2l145.408 145.408L450.56 408.576V261.12c0-22.528-18.432-40.96-40.96-40.96s-40.96 18.432-40.96 40.96V506.88c0 22.528 18.432 40.96 40.96 40.96h245.76c22.528 0 40.96-18.432 40.96-40.96s-18.432-40.96-40.96-40.96h-147.456l206.848-206.848z"  horiz-adv-x="1024" />

    
    <glyph glyph-name="dataMigration" unicode="&#58856;" d="M121.6 768h780.8c32 0 57.6-25.6 57.6-64s-25.6-64-57.6-64H121.6C89.6 640 64 665.6 64 704s25.6 64 57.6 64z m-6.4-192h793.6c64 0 115.2 57.6 115.2 128s-51.2 128-115.2 128H115.2C51.2 832 0 774.4 0 704s51.2-128 115.2-128z m793.6-576H627.2c-25.6 0-51.2 25.6-51.2 64s25.6 64 51.2 64h281.6c32 0 51.2-25.6 51.2-64s-25.6-64-51.2-64z m0 192H115.2c-64 0-115.2-57.6-115.2-128s51.2-128 115.2-128h793.6c64 0 115.2 57.6 115.2 128s-51.2 128-115.2 128z m-6.4 128H505.6C473.6 320 448 345.6 448 384s25.6 64 57.6 64h396.8c32 0 57.6-25.6 57.6-64s-25.6-64-57.6-64z m6.4 192H115.2C51.2 512 0 454.4 0 384s51.2-128 115.2-128h793.6c64 0 115.2 57.6 115.2 128 0 76.8-51.2 128-115.2 128z"  horiz-adv-x="1024" />

    
    <glyph glyph-name="multiRoom" unicode="&#58857;" d="M512 832v-115.2c0-25.6 32-44.8 57.6-25.6L768 896H512C230.4 896 0 665.6 0 384c0-121.6 38.4-230.4 108.8-313.6l32 57.6C96 204.79999999999995 64 288 64 384c0 249.6 198.4 448 448 448zM915.2 697.6l-32-57.6c44.8-76.8 76.8-160 76.8-256 0-249.6-198.4-448-448-448v115.2c0 25.6-32 44.8-57.6 25.6L256-128h256c281.6 0 512 230.4 512 512 0 121.6-38.4 230.4-108.8 313.6z"  horiz-adv-x="1024" />

    
    <glyph glyph-name="oneTouch" unicode="&#58859;" d="M678.4 563.2c19.2 19.2 51.2 19.2 76.8 0 19.2-19.2 19.2-57.6 0-76.8l-262.4-268.8c-19.2-19.2-51.2-19.2-76.8 0-6.4 6.4-57.6 70.4-153.6 192-12.8 12.8-12.8 51.2 12.8 70.4 19.2 19.2 57.6 19.2 76.8-6.4l115.2-147.2 211.2 236.8zM64 83.20000000000005C64 0 128-64 211.2-64H384v64H230.4c-51.2 0-102.4 51.2-102.4 102.4V256H64v-172.8z m896 0V256h-64v-153.6c0-51.2-51.2-102.4-102.4-102.4H640v-64h172.8c83.2 0 147.2 64 147.2 147.2zM812.8 832H640v-64h153.6c51.2 0 102.4-51.2 102.4-102.4V512h64V684.8C960 768 896 832 812.8 832zM230.4 768H384V832H211.2C128 832 64 768 64 684.8V512h64V665.6C128 716.8 179.2 768 230.4 768z"  horiz-adv-x="1024" />

    
    <glyph glyph-name="nodeInfo" unicode="&#58860;" d="M889.6 172.79999999999995c-44.8 0-83.2-19.2-108.8-57.6L633.6 192c12.8 25.6 19.2 51.2 19.2 83.2s-6.4 64-25.6 89.6l83.2 32c6.4-12.8 19.2-25.6 25.6-32 57.6-44.8 140.8-38.4 192 12.8 51.2 57.6 44.8 140.8-12.8 185.6-57.6 44.8-140.8 38.4-192-12.8-25.6-32-38.4-76.8-25.6-115.2l-89.6-38.4c-32 38.4-76.8 64-128 64v128c64 6.4 115.2 64 115.2 134.4 0 76.8-64 134.4-134.4 134.4C384 857.6 320 800 320 723.2c0-64 51.2-121.6 115.2-134.4v-128C339.2 448 256 371.20000000000005 256 268.79999999999995c0-44.8 19.2-89.6 44.8-121.6l-57.6-32c-25.6 38.4-70.4 57.6-115.2 57.6-64 6.4-128-57.6-128-128 0-76.8 64-134.4 134.4-134.4 76.8 0 134.4 57.6 134.4 134.4 0 12.8 0 25.6-6.4 38.4l70.4 38.4c32-25.6 76.8-38.4 115.2-38.4 64 0 121.6 32 160 76.8l147.2-76.8c-6.4-12.8-6.4-25.6-6.4-44.8 0-76.8 64-134.4 134.4-134.4 76.8 0 134.4 57.6 134.4 134.4 6.4 76.8-57.6 134.4-128 134.4z"  horiz-adv-x="1024" />

    
    <glyph glyph-name="navApp" unicode="&#58861;" d="M550.4 224c0 64 51.2 115.2 115.2 115.2h236.8c64 0 115.2-51.2 115.2-115.2v-236.8c0-64-51.2-115.2-115.2-115.2h-236.8c-64 0-115.2 51.2-115.2 115.2v236.8z m-550.4 0c0 64 51.2 115.2 115.2 115.2h236.8c64 0 115.2-51.2 115.2-115.2v-236.8c0-64-51.2-115.2-115.2-115.2H115.2c-64 0-115.2 51.2-115.2 115.2v236.8z m0 556.8C0 844.8 51.2 896 115.2 896h236.8c64 0 115.2-51.2 115.2-115.2v-236.8c0-64-51.2-115.2-115.2-115.2H115.2C51.2 422.4 0 473.6 0 544V780.8z m550.4 0c0 64 51.2 115.2 115.2 115.2h236.8c64 0 115.2-51.2 115.2-115.2v-236.8c0-64-51.2-115.2-115.2-115.2h-236.8c-64 0-115.2 51.2-115.2 115.2V780.8z"  horiz-adv-x="1024" />

    
    <glyph glyph-name="noteStatistics" unicode="&#58862;" d="M576 352h448c0-96-64-230.4-128-294.4L576 352z m384 64H512v448c249.6 0 448-198.4 448-448z m-512 384v-448l320-294.4c-83.2-96-185.6-153.6-320-153.6-243.2 0-448 198.4-448 448s211.2 448 448 448z"  horiz-adv-x="1024" />

    
    <glyph glyph-name="delOrder" unicode="&#58863;" d="M849.92 613.376l100.352-100.352c16.384-16.384 16.384-40.96 0-57.344-16.384-16.384-40.96-16.384-57.344 0l-102.4 100.352-102.4-100.352c-16.384-16.384-40.96-16.384-57.344 0-16.384 16.384-16.384 40.96 0 57.344l100.352 100.352-100.352 100.352c-16.384 16.384-16.384 40.96 0 57.344 16.384 16.384 40.96 16.384 57.344 0l102.4-100.352 102.4 100.352c16.384 16.384 40.96 16.384 57.344 0 16.384-16.384 16.384-40.96 0-57.344l-100.352-100.352z m-614.4-364.544v286.72c0 34.816 26.624 61.44 61.44 61.44h245.76v-81.92h-204.8c-12.288 0-20.48-8.192-20.48-20.48v-243.712h368.64c12.288 0 20.48 8.192 20.48 20.48v102.4h81.92v-143.36c0-34.816-26.624-61.44-61.44-61.44h-409.6v-81.92c0-12.288 8.192-20.48 20.48-20.48h532.48c12.288 0 20.48 8.192 20.48 20.48V371.712h81.92v-325.632c0-34.816-26.624-61.44-61.44-61.44h-614.4c-34.816 0-61.44 26.624-61.44 61.44v122.88h-122.88c-34.816 0-61.44 26.624-61.44 61.44V717.8240000000001c0 34.816 26.624 61.44 61.44 61.44h430.08v-81.92h-389.12c-12.288 0-20.48-8.192-20.48-20.48v-407.552c0-12.288 8.192-20.48 20.48-20.48h81.92z"  horiz-adv-x="1024" />

    
    <glyph glyph-name="openOrder" unicode="&#58864;" d="M669.696 451.584c18.432 18.432 36.864 18.432 53.248 0 18.432-18.432 18.432-36.864 0-55.296L468.992 132.096c-4.096-4.096-10.24-8.192-14.336-10.24-14.336-6.144-26.624-4.096-40.96 10.24l-114.688 118.784c-18.432 18.432-18.432 36.864 0 55.296 18.432 18.432 36.864 18.432 53.248 0l88.064-90.112 229.376 235.52zM368.64 814.08c-12.288 0-20.48-8.192-20.48-20.48v-102.4c0-12.288 8.192-20.48 20.48-20.48h286.72c12.288 0 20.48 8.192 20.48 20.48V793.6c0 12.288-8.192 20.48-20.48 20.48H368.64z m389.12-40.96h102.4c34.816 0 61.44-26.624 61.44-61.44v-778.24c0-34.816-26.624-61.44-61.44-61.44H163.84c-34.816 0-61.44 26.624-61.44 61.44V711.6800000000001c0 34.816 26.624 61.44 61.44 61.44h102.4V834.56c0 34.816 26.624 61.44 61.44 61.44h368.64c34.816 0 61.44-26.624 61.44-61.44v-61.44z m-491.52-81.92h-61.44c-12.288 0-20.48-8.192-20.48-20.48v-696.32c0-12.288 8.192-20.48 20.48-20.48h614.4c12.288 0 20.48 8.192 20.48 20.48V670.72c0 12.288-8.192 20.48-20.48 20.48h-61.44v-40.96c0-34.816-26.624-61.44-61.44-61.44H327.68c-34.816 0-61.44 26.624-61.44 61.44v40.96z"  horiz-adv-x="1024" />

    
    <glyph glyph-name="roomSwitching" unicode="&#58866;" d="M512 832C262.4 832 64 633.6 64 384s198.4-448 448-448 448 198.4 448 448-198.4 448-448 448z m0-960c-281.6 0-512 230.4-512 512s230.4 512 512 512 512-230.4 512-512-230.4-512-512-512z m179.2 614.4L582.4 588.8c-12.8 12.8-12.8 32 0 44.8 12.8 12.8 32 12.8 44.8 0l160-160c6.4-6.4 6.4-6.4 6.4-12.8v-25.6c-6.4-6.4-12.8-12.8-19.2-12.8H256c-19.2 0-32 12.8-32 32s12.8 32 32 32h435.2zM332.8 281.6l108.8-108.8c12.8-12.8 12.8-32 0-44.8-12.8-12.8-32-12.8-44.8 0L236.8 294.4c-6.4 0-6.4 6.4-12.8 12.8v25.6c6.4 12.8 19.2 19.2 32 19.2h512c19.2 0 32-12.8 32-32s-12.8-32-32-32H332.8v-6.4z"  horiz-adv-x="1024" />

    
    <glyph glyph-name="otherOrder" unicode="&#58867;" d="M102.4 384c0-225.28 184.32-409.6 409.6-409.6 137.216 0 258.048 67.584 331.776 172.032 10.24 14.336 18.432 26.624 26.624 43.008 22.528 43.008 38.912 90.112 45.056 139.264 2.048 18.432 4.096 36.864 4.096 57.344 0 169.984-102.4 313.344-247.808 376.832-26.624 12.288-55.296 20.48-83.968 24.576-24.576 4.096-49.152 6.144-75.776 6.144-18.432 0-38.912-2.048-57.344-4.096-49.152-6.144-96.256-22.528-139.264-45.056C184.32 672.768 102.4 533.504 102.4 384M544.768 709.6320000000001c-20.48-51.2-32.768-106.496-32.768-161.792 0-135.168 65.536-245.76 163.84-327.68-180.224 0-327.68 147.456-327.68 327.68 0 47.104 10.24 94.208 28.672 135.168 53.248 22.528 110.592 32.768 167.936 26.624M806.912 240.64c-2.048 0-6.144 2.048-8.192 2.048-120.832 49.152-204.8 165.888-204.8 303.104 0 51.2 12.288 100.352 32.768 143.36C751.616 644.096 839.68 523.264 839.68 384c0-47.104-10.24-92.16-28.672-135.168-2.048-2.048-4.096-4.096-4.096-8.192M184.32 384c0 86.016 32.768 161.792 86.016 221.184-2.048-18.432-4.096-38.912-4.096-57.344 0-225.28 184.32-409.6 409.6-409.6 18.432 0 38.912 2.048 57.344 4.096C671.744 87.03999999999996 593.92 56.32000000000005 512 56.32000000000005c-180.224 0-327.68 147.456-327.68 327.68"  horiz-adv-x="1024" />

    
    <glyph glyph-name="zk" unicode="&#58868;" d="M864 633.6V640c0-38.4-25.6-64-57.6-64H217.6c-32 0-51.2 25.6-57.6 64v-6.4 12.8-6.4c0 38.4 25.6 64 57.6 64h595.2c25.6 0 51.2-25.6 57.6-64v6.4l-6.4-12.8z m0-320V320c0-38.4-25.6-64-57.6-64H217.6c-25.6 0-51.2 25.6-57.6 64v-6.4 12.8-6.4c0 38.4 25.6 64 57.6 64h595.2c25.6 0 51.2-25.6 57.6-64v6.4-12.8zM179.2 896C96 896 32 832 32 761.6V-128L512-6.399999999999977l480-121.6V761.6c0 76.8-64 134.4-147.2 134.4H179.2z"  horiz-adv-x="1024" />

    
    <glyph glyph-name="redis" unicode="&#58869;" d="M512 57.60000000000002c-12.8 0-25.6 0-38.4 6.4l-256 115.2c-19.2 6.4-25.6 25.6-19.2 44.8 6.4 19.2 25.6 25.6 44.8 19.2l256-115.2h19.2l256 115.2c19.2 6.4 38.4 0 44.8-19.2 6.4-19.2 0-38.4-19.2-44.8l-256-115.2c-6.4-6.4-19.2-6.4-32-6.4z m0 160c-12.8 0-25.6 0-38.4 6.4l-256 115.2c-12.8 12.8-19.2 32-12.8 44.8 6.4 19.2 25.6 25.6 44.8 19.2l256-115.2h19.2l256 115.2c19.2 6.4 38.4 0 44.8-19.2 6.4-19.2 0-38.4-19.2-44.8l-256-115.2c-12.8 0-25.6-6.4-38.4-6.4z m-211.2 320L499.2 448h19.2l198.4 89.6-198.4 89.6h-19.2L300.8 537.6zM512 384c-12.8 0-25.6 0-38.4 6.4l-256 115.2c-12.8 6.4-19.2 19.2-19.2 32s6.4 25.6 19.2 32l256 115.2c25.6 12.8 51.2 12.8 70.4 0l256-115.2c12.8-6.4 19.2-19.2 19.2-32s-6.4-25.6-19.2-32l-256-115.2c-6.4-6.4-19.2-6.4-32-6.4z m64-448h64v-64H576v64z m-192 0h64v-64H384v64z m544 0H768v-64h160c51.2 0 96 44.8 96 96v832c0 51.2-44.8 96-96 96h-832C44.8 896 0 851.2 0 800v-832c0-51.2 44.8-96 96-96H256v64H96c-19.2 0-32 12.8-32 32v832c0 19.2 12.8 32 32 32h832c19.2 0 32-12.8 32-32v-832c0-19.2-12.8-32-32-32z"  horiz-adv-x="1024" />

    
    <glyph glyph-name="personM" unicode="&#58870;" d="M806.4 128c38.4 0 70.4 32 70.4 70.4s-32 70.4-70.4 70.4-70.4-32-70.4-70.4 25.6-70.4 70.4-70.4zM1024 326.4v-249.6l-217.6-134.4-217.6 134.4V326.4l217.6 134.4L1024 326.4zM384 896c140.8 0 256-115.2 256-256S524.8 384 384 384 128 499.2 128 640s115.2 256 256 256z m128-582.4v-268.8l294.4-172.8H0v249.6c0 108.8 89.6 192 198.4 192H512z"  horiz-adv-x="1024" />

    
    <glyph glyph-name="clusterM" unicode="&#58873;" d="M499.2 6.399999999999977l-313.6 166.4c-12.8 6.4-19.2 19.2-19.2 32v320l313.6-185.6c12.8-6.4 19.2-19.2 19.2-32v-300.8z m64 19.2V352c0 12.8-6.4 25.6-19.2 32L179.2 588.8l307.2 172.8c12.8 6.4 25.6 6.4 38.4 0l313.6-172.8c12.8-6.4 19.2-19.2 19.2-32v-345.6c0-12.8-6.4-25.6-19.2-32l-275.2-153.6zM492.8 825.6L128 620.8c-6.4-6.4-12.8-19.2-12.8-32v-409.6c0-12.8 6.4-25.6 19.2-25.6l364.8-204.8c6.4-6.4 25.6-6.4 32 0l364.8 204.8c6.4 6.4 19.2 19.2 19.2 25.6V588.8c0 12.8-6.4 19.2-19.2 25.6L531.2 825.6h-38.4z m0 64c12.8 6.4 25.6 6.4 38.4 0l422.4-236.8c12.8-6.4 19.2-19.2 19.2-32v-473.6c0-12.8-6.4-25.6-19.2-32l-422.4-236.8c-12.8-6.4-25.6-6.4-38.4 0l-422.4 236.8c-12.8 6.4-19.2 19.2-19.2 32V620.8c0 12.8 6.4 25.6 19.2 32L492.8 889.6z"  horiz-adv-x="1024" />

    
    <glyph glyph-name="machineM" unicode="&#58874;" d="M704 608H512v128h192v-128z m-64-576H576v128h64v-128z m-576 576v128h192v-121.6l-192-6.4z m128-576H128v128h64v-128z m320 832c-32 0-64-25.6-64-64v-640H320v640c0 32-25.6 64-64 64H64c-32 0-64-25.6-64-64v-838.4c0-32 25.6-64 64-64h192c32 0 64 25.6 64 64v64h128v-64c0-32 25.6-64 64-64h192c32 0 64 25.6 64 64V800c0 32-25.6 64-64 64H512z m448 0c-38.4 0-64-25.6-64-57.6v-838.4c0-32 25.6-57.6 64-57.6s64 25.6 64 57.6V806.4c0 32-25.6 57.6-64 57.6z"  horiz-adv-x="1024" />

    
    <glyph glyph-name="down" unicode="&#58877;" d="M396.8 748.8c0 12.8 6.4 19.2 19.2 19.2h217.6c12.8 0 19.2-6.4 19.2-19.2V704h-256v44.8zM825.6 384c12.8 0 19.2-6.4 19.2-19.2 0-6.4 0-6.4-6.4-12.8l-300.8-345.6c-6.4-6.4-19.2-6.4-25.6 0L211.2 352c-6.4 6.4-6.4 19.2 0 25.6 6.4 6.4 6.4 6.4 12.8 6.4h153.6c12.8 0 19.2 6.4 19.2 19.2V640h256v-236.8c0-12.8 6.4-19.2 19.2-19.2h153.6z"  horiz-adv-x="1024" />

    
    <glyph glyph-name="up" unicode="&#58878;" d="M384 19.200000000000045c0-12.8 6.4-19.2 19.2-19.2h217.6c12.8 0 19.2 6.4 19.2 19.2V64H384v-44.8zM812.8 384c12.8 0 19.2 6.4 19.2 19.2 0 6.4 0 6.4-6.4 12.8L524.8 761.6c-6.4 6.4-19.2 6.4-25.6 0L198.4 416c-6.4-6.4-6.4-19.2 0-25.6 6.4-6.4 6.4-6.4 12.8-6.4h153.6c12.8 0 19.2-12.8 19.2-19.2V128h256V364.79999999999995c0 6.4 6.4 19.2 19.2 19.2h153.6z"  horiz-adv-x="1024" />

    
    <glyph glyph-name="appName" unicode="&#58879;" d="M608-121.60000000000002l384 198.4c19.2 12.8 32 32 32 57.6V544c0 25.6-32 38.4-57.6 25.6l-384-192c-19.2-12.8-32-32-32-57.6v-416c0-25.6 32-38.4 57.6-25.6z m-185.6 0l-384 192c-25.6 6.4-38.4 25.6-38.4 51.2V544c0 25.6 32 38.4 57.6 25.6l384-185.6c19.2-12.8 32-32 32-57.6v-428.8c0-19.2-32-32-51.2-19.2z m544 768L512 422.4 57.6 646.4C32 659.2 32 691.2 57.6 704L473.6 889.6c19.2 12.8 44.8 12.8 64 0L960 704c32-12.8 32-44.8 6.4-57.6z"  horiz-adv-x="1024" />

    
    <glyph glyph-name="sysStatistics" unicode="&#58880;" d="M512 896C230.4 896 0 665.6 0 384s230.4-512 512-512 512 230.4 512 512-230.4 512-512 512z m0-960c-249.6 0-448 198.4-448 448s198.4 448 448 448c179.2 0 339.2-108.8 409.6-262.4l-230.4-230.4-160 153.6c-6.4 12.8-12.8 12.8-19.2 12.8-6.4 0-19.2 0-25.6-6.4L307.2 313.6c-12.8-12.8-12.8-32 0-44.8 12.8-12.8 32-12.8 44.8 0L512 428.8l160-160c6.4-6.4 12.8-6.4 25.6-6.4 6.4 0 19.2 0 25.6 6.4l230.4 230.4c0-32 6.4-76.8 6.4-115.2 0-249.6-198.4-448-448-448z"  horiz-adv-x="1024" />

    


  </font>
</defs>
</svg>
