<?xml version="1.0" standalone="no"?>
<!DOCTYPE svg PUBLIC "-//W3C//DTD SVG 1.1//EN" "http://www.w3.org/Graphics/SVG/1.1/DTD/svg11.dtd" >
<!--
2013-9-30: Created.
-->
<svg>
<metadata>
Created by iconfont
</metadata>
<defs>

<font id="font_family" horiz-adv-x="1024" >
  <font-face
    font-family="font_family"
    font-weight="500"
    font-stretch="normal"
    units-per-em="1024"
    ascent="896"
    descent="-128"
  />
    <missing-glyph />
    
    <glyph glyph-name="deviceModel" unicode="&#60344;" d="M243.2 422.4l83.2 140.8 192-128 102.4 160 198.4-115.2 44.8 83.2-275.2 172.8L492.8 576 288 684.8l-128-217.6 83.2-44.8zM64 729.6C64 787.2 108.8 832 160 832h697.6c57.6 0 102.4-44.8 102.4-102.4v-403.2H64V729.6z m787.2-569.6h-108.8v-108.8h108.8v108.8z m-230.4 0h-448v-108.8h448v108.8z m243.2-224h-704c-51.2 0-96 44.8-96 102.4V268.79999999999995h896v-230.4c0-51.2-44.8-102.4-96-102.4z"  horiz-adv-x="1024" />

    
    <glyph glyph-name="Array" unicode="&#60355;" d="M0 166.39999999999998c345.6 179.2 921.6 230.4 1004.8 236.8h19.2v-486.4H326.4c25.6 89.6 76.8 172.8 147.2 236.8-153.6-108.8-249.6-243.2-249.6-243.2l-25.6 19.2c6.4 12.8 179.2 256 454.4 358.4 12.8 6.4 19.2 12.8 32 12.8-204.8-51.2-460.8-160-665.6-377.6L6.4-64c230.4 256 544 364.8 755.2 409.6-217.6-32-531.2-89.6-748.8-204.8l-12.8 25.6z m1024 435.2C678.4 428.8 102.4 377.6 19.2 371.20000000000005H0V857.6h697.6C665.6 768 614.4 684.8 550.4 614.4 704 723.2 800 857.6 800 857.6l25.6-19.2c-6.4-12.8-179.2-256-454.4-358.4-12.8 0-25.6 0-38.4-6.4 204.8 51.2 460.8 160 665.6 377.6l19.2-19.2C787.2 576 473.6 467.2 262.4 428.8c217.6 32 531.2 89.6 748.8 204.8l12.8-32z"  horiz-adv-x="1024" />

    
    <glyph glyph-name="dell" unicode="&#60357;" d="M512 896C230.4 896 0 665.6 0 384s230.4-512 512-512 512 230.4 512 512-230.4 512-512 512zM268.8 390.4c0 32-19.2 44.8-44.8 44.8h-19.2v-96h19.2c25.6 0 44.8 19.2 44.8 51.2z m307.2-38.4L448 256 332.8 345.6c-19.2-38.4-57.6-70.4-102.4-70.4H128V499.2h96c51.2 0 89.6-32 102.4-70.4L448 518.4l44.8-32L384 403.2l19.2-12.8L512 473.6l44.8-32L448 352l19.2-12.8L576 422.4V499.2h76.8v-153.6h76.8v-64H576V352z m249.6-12.8h76.8v-64h-153.6V499.2h76.8v-160z"  horiz-adv-x="1024" />

    
    <glyph glyph-name="assetsInfo" unicode="&#60359;" d="M512 768c192 0 352-76.8 352-179.2v-57.6c0-96-160-179.2-352-179.2S160 435.2 160 531.2v57.6C160 691.2 320 768 512 768z m0-473.6c192 0 352 57.6 352 160v-102.4c0-96-160-179.2-352-179.2S160 256 160 352V454.4C160 358.4 320 294.4 512 294.4z m0-179.2c192 0 352 57.6 352 160v-102.4C864 76.79999999999995 704 0 512 0s-352 76.8-352 179.2V275.20000000000005c0-96 160-160 352-160z"  horiz-adv-x="1024" />

    
    <glyph glyph-name="computerManage" unicode="&#60360;" d="M902.4 608v57.6H620.8v-57.6h281.6z m0-115.2v57.6H620.8v-57.6h281.6z m-140.8-332.8c44.8 0 83.2 38.4 83.2 83.2 0 44.8-38.4 83.2-83.2 83.2-44.8 0-83.2-38.4-83.2-83.2 0-44.8 38.4-83.2 83.2-83.2zM902.4 832c32 0 57.6-25.6 57.6-57.6v-780.8c0-25.6-25.6-57.6-57.6-57.6H620.8c-25.6 0-57.6 25.6-57.6 57.6V774.4c0 32 25.6 57.6 57.6 57.6h281.6zM403.2 608v57.6H121.6v-57.6h281.6z m0-115.2v57.6H121.6v-57.6h281.6z m-140.8-332.8c44.8 0 83.2 38.4 83.2 83.2 0 44.8-38.4 83.2-83.2 83.2s-83.2-38.4-83.2-83.2c0-44.8 38.4-83.2 83.2-83.2zM403.2 832c25.6 0 57.6-25.6 57.6-57.6v-780.8c0-25.6-25.6-57.6-57.6-57.6H121.6c-32 0-57.6 25.6-57.6 57.6V774.4c0 32 25.6 57.6 57.6 57.6h281.6z"  horiz-adv-x="1024" />

    
    <glyph glyph-name="alarmUnit" unicode="&#60361;" d="M755.2 281.6h-96c-12.8 0-25.6 0-38.4-6.4 102.4-44.8 172.8-140.8 192-249.6h102.4c25.6 0 51.2 19.2 51.2 51.2-6.4 115.2-96 204.8-211.2 204.8z m-217.6-44.8c-6.4 0-12.8 6.4-25.6 6.4-19.2 12.8-44.8 12.8-64 12.8H320c-19.2 0-44.8 0-64-6.4-44.8-12.8-83.2-32-115.2-64-51.2-51.2-76.8-115.2-76.8-185.6 0-38.4 25.6-64 64-64h512c38.4 0 64 25.6 64 64v32c-12.8 96-76.8 179.2-166.4 204.8z m172.8 96c108.8 6.4 198.4 102.4 192 211.2-6.4 102.4-89.6 185.6-192 192h-12.8c25.6-51.2 38.4-102.4 38.4-160 0-83.2-32-166.4-89.6-230.4 19.2-6.4 38.4-12.8 64-12.8zM384 320c140.8 0 256 115.2 256 256 0 44.8-12.8 89.6-38.4 128C531.2 825.6 377.6 870.4 256 800 134.4 729.6 89.6 569.6 160 448 204.8 371.20000000000005 294.4 320 384 320z"  horiz-adv-x="1024" />

    
    <glyph glyph-name="areaManage" unicode="&#60362;" d="M844.8 448L448 51.200000000000045H371.2l480 480V448z m-198.4 268.8l-467.2-467.2V332.79999999999995l390.4 390.4h76.8zM217.6 608H121.6c-32 0-57.6 25.6-57.6 57.6V774.4c0 32 25.6 57.6 57.6 57.6h115.2c32 0 57.6-25.6 57.6-57.6v-96l38.4 38.4h76.8L179.2 486.4V569.6l38.4 38.4z m582.4-448h108.8c32 0 57.6-25.6 57.6-57.6v-115.2c0-32-25.6-57.6-57.6-57.6h-115.2c-32 0-57.6 25.6-57.6 57.6v108.8l-51.2-51.2H608l243.2 243.2v-76.8l-51.2-51.2z m-512-38.4v-134.4c0-32-25.6-57.6-57.6-57.6H121.6c-32 6.4-57.6 32-57.6 64v115.2c0 32 25.6 57.6 57.6 57.6h128l492.8 492.8V774.4c0 32 25.6 57.6 57.6 57.6h115.2c19.2 0 44.8-25.6 44.8-57.6v-115.2c0-32-25.6-57.6-57.6-57.6H768l-480-480z"  horiz-adv-x="1024" />

    
    <glyph glyph-name="equipmentName" unicode="&#60363;" d="M64 70.39999999999998V665.6c0 64 51.2 108.8 108.8 108.8v-332.8c0-64 51.2-115.2 115.2-115.2V-64H192c-70.4 6.4-128 64-128 134.4zM691.2 832h38.4c38.4 0 64-25.6 64-64v-320c0-38.4-25.6-64-64-64h-38.4c-38.4 0-64 25.6-64 64V768c0 38.4 25.6 64 64 64zM294.4 832h38.4c38.4 0 64-25.6 64-64v-320c0-38.4-25.6-64-64-64h-38.4c-38.4 0-64 25.6-64 64V768c0 38.4 32 64 64 64z m384-889.6H345.6v384c64 0 115.2 51.2 115.2 115.2V774.4H576v-332.8c0-64 51.2-115.2 115.2-115.2v-384z m153.6-6.4h-96V326.4c64 0 115.2 51.2 115.2 115.2V774.4c64 0 115.2-51.2 115.2-115.2V64c-6.4-70.4-64-128-134.4-128z"  horiz-adv-x="1024" />

    
    <glyph glyph-name="critical" unicode="&#60364;" d="M724.676923 502.153846c-3.938462 7.876923-11.815385 11.815385-19.692308 11.815385h-141.784615L697.107692 738.461538c3.938462 7.876923 3.938462 15.753846 0 19.692308-3.938462 7.876923-11.815385 11.815385-19.692307 11.815385H472.615385c-7.876923 0-15.753846-3.938462-19.692308-11.815385l-153.6-382.030769c-3.938462-7.876923-3.938462-15.753846 3.938461-19.692308 3.938462-3.938462 11.815385-7.876923 19.692308-7.876923h98.461539l-118.153847-311.138461c-3.938462-7.876923 0-19.692308 7.876924-27.569231 7.876923-3.938462 19.692308-3.938462 27.56923 3.938461l385.969231 468.676923c3.938462 0 3.938462 11.815385 0 19.692308zM0 384C0 667.569231 228.430769 896 512 896s512-228.430769 512-512-228.430769-512-512-512S0 100.43076900000005 0 384z"  horiz-adv-x="1024" />

    
    <glyph glyph-name="construction" unicode="&#60365;" d="M742.4 300.79999999999995c6.4-6.4 19.2-12.8 25.6-12.8 6.4 0 12.8 0 19.2 6.4 12.8 12.8 19.2 32 6.4 44.8l-128 192c-12.8 12.8-32 19.2-44.8 6.4-12.8-6.4-19.2-25.6-6.4-44.8l128-192z m-192 0c6.4-6.4 12.8-12.8 25.6-12.8 6.4 0 12.8 0 19.2 6.4 12.8 6.4 19.2 25.6 6.4 44.8l-128 192c-6.4 12.8-32 19.2-44.8 6.4-12.8-6.4-19.2-25.6-6.4-44.8l128-192z m-320 192l128-192c6.4-6.4 12.8-12.8 25.6-12.8 6.4 0 12.8 0 19.2 6.4 12.8 6.4 19.2 25.6 6.4 44.8l-128 192c-6.4 12.8-25.6 19.2-44.8 6.4-12.8-6.4-19.2-25.6-6.4-44.8zM780.8 640V768H960v-128h-179.2z m179.2-384H64V576h896v-320zM64 768h179.2v-128H64V768z m416 0v-128H307.2V768h172.8z m236.8 0v-128H544V768h172.8zM960 832H64c-38.4 0-64-25.6-64-64v-800c0-19.2 12.8-32 32-32s32 12.8 32 32V192h896v-224c0-19.2 12.8-32 32-32s32 12.8 32 32V768c0 38.4-25.6 64-64 64z"  horiz-adv-x="1024" />

    
    <glyph glyph-name="DataDictionary" unicode="&#60366;" d="M544 192c-19.2 0-32 12.8-32 32s12.8 32 32 32 32-12.8 32-32-12.8-32-32-32zM512 313.6V448H448v-320h64v6.4c12.8-6.4 19.2-6.4 32-6.4 51.2 0 96 44.8 96 96S595.2 320 544 320c-12.8 0-19.2 0-32-6.4z m-192 32l32-96h-64L320 345.6zM300.8 448L192 128h64l25.6 64h83.2l19.2-64h64L339.2 448h-38.4zM256 768L192 704h576v-704l64 64V768H256z m704 128v-832l-192-192H64V704l192 192h704z"  horiz-adv-x="1024" />

    
    <glyph glyph-name="bankType" unicode="&#60367;" d="M512 832L64 614.4v-83.2h896V614.4L512 832z m211.2-384v-300.8h140.8V448h-140.8zM64-64h896v128H64v-128z m377.6 512v-300.8h140.8V448H441.6zM160 448v-300.8h140.8V448H160z"  horiz-adv-x="1024" />

    
    <glyph glyph-name="disposalidea" unicode="&#60368;" d="M633.6 96l160 236.8 70.4-51.2-160-243.2s-6.4 0-6.4-6.4l-64-32h-6.4c-6.4 0-6.4 0-12.8 6.4s-6.4 6.4 0 12.8l12.8 70.4s6.4 0 6.4 6.4zM243.2 384c-12.8 0-19.2-12.8-19.2-32s6.4-32 19.2-32H512c12.8 0 19.2 12.8 19.2 32S524.8 384 512 384H243.2z m6.4 128c-12.8 0-25.6-12.8-25.6-32s12.8-32 25.6-32h377.6c12.8 0 25.6 12.8 25.6 32S640 512 627.2 512H249.6z m0 128c-12.8 0-25.6-12.8-25.6-32s12.8-32 25.6-32h377.6c12.8 0 25.6 12.8 25.6 32S640 640 627.2 640H249.6z m172.8-486.4l-76.8-102.4-76.8 102.4L192 51.200000000000045c-6.4-6.4-12.8-6.4-12.8-6.4-12.8 0-19.2 12.8-19.2 19.2V716.8c0 32 19.2 51.2 44.8 51.2h467.2c25.6 0 44.8-19.2 44.8-51.2V384l-224-332.8-70.4 102.4z"  horiz-adv-x="1024" />

    
    <glyph glyph-name="ip" unicode="&#60370;" d="M512 550.4h166.4V384H512V550.4z m-57.6 57.6v-448H512V326.4h172.8c25.6 0 51.2 25.6 51.2 57.6V550.4c0 32-25.6 57.6-51.2 57.6H454.4z m-166.4 0v-448h57.6v448h-57.6zM857.6-64H166.4c-57.6 0-102.4 44.8-102.4 102.4V729.6C64 787.2 108.8 832 166.4 832h697.6c51.2 0 96-44.8 96-102.4v-697.6c0-51.2-44.8-96-102.4-96z"  horiz-adv-x="1024" />

    
    <glyph glyph-name="cisco" unicode="&#60371;" d="M377.6-121.60000000000002H294.4v332.8h83.2v-332.8z m537.6 236.8c-6.4 0-32 19.2-70.4 19.2-57.6 0-89.6-38.4-89.6-89.6 0-51.2 38.4-89.6 89.6-89.6 38.4 0 70.4 12.8 70.4 19.2v-89.6c-12.8 0-38.4-12.8-76.8-12.8-96 0-179.2 64-179.2 172.8 0 102.4 76.8 172.8 179.2 172.8 38.4 0 70.4-6.4 76.8-12.8v-89.6zM256 115.20000000000005c-6.4 0-32 19.2-70.4 19.2-57.6 0-96-38.4-96-89.6 0-51.2 38.4-89.6 96-89.6 38.4 0 70.4 12.8 70.4 19.2v-89.6c-12.8 0-38.4-12.8-76.8-12.8C83.2-128 0-64 0 44.799999999999955c0 102.4 76.8 172.8 179.2 172.8 38.4 0 70.4-6.4 76.8-12.8v-89.6z m1024-64c0-96-76.8-179.2-179.2-179.2-102.4 0-179.2 76.8-179.2 172.8s76.8 172.8 179.2 172.8c102.4 0 179.2-70.4 179.2-166.4z m-179.2 83.2c-51.2 0-89.6-38.4-89.6-89.6 0-51.2 38.4-89.6 89.6-89.6s89.6 38.4 89.6 89.6c0 51.2-38.4 89.6-89.6 89.6z m-480 0s-38.4 12.8-64 12.8c-32 0-51.2-12.8-51.2-25.6 0-19.2 25.6-25.6 38.4-32l25.6-6.4c44.8-19.2 70.4-57.6 70.4-96 0-83.2-76.8-115.2-140.8-115.2-44.8 0-89.6 6.4-89.6 6.4v76.8c6.4 0 44.8-12.8 76.8-12.8 44.8 0 64 12.8 64 32s-19.2 25.6-38.4 32c-6.4 0-12.8 6.4-19.2 6.4-44.8 12.8-83.2 44.8-83.2 96 0 64 44.8 102.4 128 102.4 38.4 0 76.8-12.8 83.2-12.8v-64zM96 537.6c0 25.6-19.2 44.8-38.4 44.8s-44.8-19.2-44.8-44.8v-102.4c0-25.6 19.2-44.8 38.4-44.8s38.4 19.2 38.4 44.8V537.6z m140.8 134.4c0 25.6-19.2 44.8-38.4 44.8s-38.4-19.2-38.4-44.8v-230.4c0-25.6 19.2-44.8 38.4-44.8s38.4 19.2 38.4 44.8V672zM384 851.2c0 25.6-12.8 44.8-38.4 44.8-19.2 0-38.4-19.2-38.4-44.8v-505.6c0-25.6 19.2-44.8 38.4-44.8 25.6 0 38.4 19.2 38.4 44.8V851.2z m147.2-179.2c0 25.6-19.2 44.8-38.4 44.8s-38.4-19.2-38.4-44.8v-230.4c0-25.6 19.2-44.8 38.4-44.8s38.4 19.2 38.4 44.8V672z m147.2-134.4c0 25.6-19.2 44.8-38.4 44.8s-38.4-19.2-38.4-44.8v-102.4c0-25.6 19.2-44.8 38.4-44.8s38.4 19.2 38.4 44.8V537.6z m147.2 134.4c0 25.6-19.2 44.8-38.4 44.8s-38.4-19.2-38.4-44.8v-230.4c0-25.6 19.2-44.8 38.4-44.8s38.4 19.2 38.4 44.8V672zM972.8 851.2c0 25.6-19.2 44.8-38.4 44.8s-38.4-19.2-38.4-44.8v-505.6c0-25.6 19.2-44.8 38.4-44.8s38.4 19.2 38.4 44.8V851.2z m147.2-179.2c0 25.6-19.2 44.8-38.4 44.8s-38.4-19.2-38.4-44.8v-230.4c0-25.6 19.2-44.8 38.4-44.8 25.6 0 38.4 19.2 38.4 44.8V672z m140.8-134.4c0 25.6-19.2 44.8-38.4 44.8s-38.4-19.2-38.4-44.8v-102.4c0-25.6 19.2-44.8 38.4-44.8s38.4 19.2 38.4 44.8V537.6z"  horiz-adv-x="1280" />

    
    <glyph glyph-name="navLogAlert" unicode="&#60347;" d="M486.4 320l70.4 108.8v6.4c12.8 25.6 6.4 57.6-25.6 70.4-25.6 12.8-64 6.4-83.2-25.6L332.8 300.79999999999995c-6.4-6.4-12.8-19.2-12.8-32 0-32 25.6-51.2 51.2-51.2H537.6l-83.2-128v-6.4c-12.8-25.6-6.4-57.6 25.6-70.4 32-12.8 64-6.4 83.2 25.6l128 198.4c6.4 6.4 12.8 19.2 12.8 32 0 25.6-25.6 51.2-51.2 51.2H486.4zM768 640c32 0 64 32 64 64s-32 64-64 64H448c-32 0-64-32-64-64s32-64 64-64h320zM256 640c32 0 64 32 64 64s-32 64-64 64-64-32-64-64 32-64 64-64z m640 256c38.4 0 64-32 64-64v-896c0-38.4-25.6-64-64-64H128c-38.4 0-64 32-64 64V832c0 38.4 25.6 64 64 64h768z"  horiz-adv-x="1024" />

    
    <glyph glyph-name="huawei" unicode="&#60373;" d="M844.8 288c-25.6-51.2-70.4-64-70.4-64-19.2-6.4-38.4-6.4-38.4-6.4H576c89.6 64 268.8 160 268.8 160 19.2-51.2 0-89.6 0-89.6zM691.2 128c-32 6.4-89.6 51.2-108.8 64l211.2-6.4c-51.2-76.8-102.4-57.6-102.4-57.6z m-128 108.8c-6.4 6.4-6.4 6.4 0 0 76.8 179.2 192 313.6 192 313.6s57.6-57.6 57.6-115.2c0-44.8-32-70.4-32-70.4-64-44.8-185.6-108.8-217.6-128z m-32 19.2c-32 307.2 32 384 32 384 19.2 0 32-6.4 32-6.4 57.6-12.8 70.4-64 70.4-64 12.8-25.6 0-64 0-64-19.2-83.2-108.8-217.6-134.4-249.6 6.4 0 0 0 0 0z m-38.4 0c-25.6 32-115.2 166.4-134.4 249.6 0 0-12.8 32 0 64 0 0 12.8 51.2 70.4 64 0 0 25.6 6.4 32 6.4 0 0 64-76.8 32-384z m-25.6-12.8s0-6.4 0 0c-6.4-6.4-6.4-6.4 0 0C435.2 256 307.2 320 256 371.20000000000005c0 0-32 25.6-32 70.4-12.8 51.2 51.2 108.8 51.2 108.8s108.8-134.4 192-307.2z m-19.2-25.6s0-6.4 0 0H288s-19.2 0-38.4 6.4c0 0-44.8 12.8-64 64 0 0-19.2 38.4-6.4 89.6-6.4 0 172.8-96 268.8-160z m-6.4-25.6c-19.2-12.8-83.2-57.6-108.8-64-38.4-12.8-76.8 19.2-102.4 64h211.2c0 6.4 0 6.4 0 0 0 6.4 6.4 0 0 0zM512 896C230.4 896 0 665.6 0 384s230.4-512 512-512 512 230.4 512 512-230.4 512-512 512z"  horiz-adv-x="1024" />

    
    <glyph glyph-name="hc" unicode="&#60375;" d="M768 825.6H256L0 384l256-441.6h512L1024 384l-256 441.6zM377.6 262.4H307.2V352H204.8v-83.2H134.4V505.6h70.4v-83.2h102.4V505.6h70.4v-243.2z m224 38.4c-6.4-12.8-19.2-19.2-32-25.6-12.8-6.4-32-12.8-57.6-12.8s-38.4 0-51.2 6.4c-12.8 6.4-25.6 12.8-32 25.6-6.4 6.4-12.8 19.2-19.2 32l70.4 6.4c0-12.8 6.4-19.2 12.8-25.6 6.4 0 12.8-6.4 19.2-6.4 6.4 0 19.2 0 25.6 6.4 6.4 12.8 6.4 19.2 6.4 32s0 19.2-6.4 25.6c-6.4 6.4-12.8 6.4-25.6 6.4-6.4 0-12.8 0-19.2-6.4l6.4 44.8h6.4c6.4 0 19.2 0 25.6 6.4 6.4 6.4 6.4 12.8 6.4 19.2 0 6.4 0 12.8-6.4 19.2-6.4 6.4-12.8 6.4-25.6 6.4-6.4 0-12.8 0-19.2-6.4 0 0-6.4-12.8-6.4-19.2l-64 12.8c6.4 19.2 12.8 32 32 44.8 12.8 12.8 38.4 12.8 64 12.8 32 0 57.6-6.4 70.4-19.2 12.8-12.8 19.2-25.6 19.2-44.8 0-12.8 0-19.2-6.4-25.6-6.4-6.4-19.2-12.8-32-19.2 12.8 0 19.2-6.4 19.2-6.4 12.8-6.4 19.2-12.8 25.6-19.2 6.4-6.4 6.4-19.2 6.4-25.6 0-19.2-6.4-32-12.8-44.8z m230.4-25.6c-12.8-6.4-32-6.4-57.6-6.4s-51.2 6.4-64 12.8c-19.2 6.4-32 19.2-44.8 38.4-12.8 19.2-19.2 44.8-19.2 70.4 0 38.4 12.8 70.4 32 89.6 19.2 19.2 51.2 32 89.6 32 32 0 57.6-6.4 70.4-19.2 19.2-12.8 32-32 38.4-51.2l-64-12.8c0 6.4-6.4 12.8-6.4 12.8-6.4 6.4-6.4 12.8-12.8 12.8-6.4-6.4-12.8-6.4-19.2-6.4-19.2 0-44.8-6.4-51.2-19.2-6.4-12.8-12.8-25.6-12.8-44.8 0-25.6 6.4-44.8 12.8-51.2 6.4-12.8 32-12.8 51.2-12.8 12.8 0 25.6 6.4 32 12.8 6.4 6.4 12.8 19.2 19.2 32l64-19.2c-6.4-19.2-12.8-32-19.2-44.8-12.8-12.8-25.6-19.2-38.4-25.6z"  horiz-adv-x="1024" />

    
    <glyph glyph-name="deviceType" unicode="&#60378;" d="M512 198.39999999999998c115.2 64 230.4 121.6 339.2 185.6l-108.8 57.6-211.2-115.2c-6.4-6.4-12.8-6.4-12.8-6.4-6.4 0-6.4 0-12.8 6.4L281.6 441.6 172.8 384C288 320 396.8 262.4 512 198.39999999999998z m307.2 89.6l121.6-64c19.2-6.4 25.6-32 12.8-44.8-6.4-6.4-6.4-12.8-12.8-12.8l-416-224c-12.8-6.4-19.2-6.4-32 0l-416 224c-12.8 6.4-19.2 25.6-6.4 38.4 6.4 6.4 6.4 12.8 12.8 12.8l121.6 64-121.6 64C64 364.79999999999995 57.6 384 70.4 403.2c6.4 6.4 6.4 12.8 12.8 12.8l121.6 64-121.6 64C64 556.8 57.6 576 70.4 595.2c6.4 6.4 6.4 12.8 12.8 12.8L499.2 832c6.4 0 19.2 0 32-6.4l416-224c12.8-6.4 19.2-25.6 6.4-38.4-6.4-6.4-6.4-12.8-12.8-12.8l-121.6-64 121.6-64c19.2-19.2 25.6-38.4 12.8-57.6-6.4-6.4-6.4-12.8-12.8-12.8l-121.6-64z"  horiz-adv-x="1024" />

    
    <glyph glyph-name="juniper" unicode="&#60380;" d="M480 0h64v211.2l134.4-32-25.6 51.2 160 134.4-44.8 25.6 25.6 89.6-96-6.4-6.4 38.4-83.2-83.2 32 179.2-76.8-32L512 691.2 460.8 576 384 608l32-172.8L332.8 512l-19.2-38.4-89.6 6.4 25.6-89.6-44.8-25.6 160-134.4-25.6-51.2 134.4 32V0z m32-128c-281.6 0-512 230.4-512 512s230.4 512 512 512 512-230.4 512-512-230.4-512-512-512z"  horiz-adv-x="1024" />

    
    <glyph glyph-name="equipment" unicode="&#60381;" d="M870.4 691.2H460.8c-25.6 0-51.2 25.6-51.2 57.6s25.6 57.6 51.2 57.6h409.6c25.6 0 51.2-25.6 51.2-57.6s-25.6-57.6-51.2-57.6zM1004.8 896H19.2C6.4 896 0 883.2 0 870.4V640c0-12.8 6.4-25.6 19.2-25.6h985.6c12.8 0 19.2 12.8 19.2 25.6V870.4c0 12.8-6.4 25.6-19.2 25.6z m-134.4-934.4H268.8c-25.6 0-51.2 25.6-51.2 57.6s25.6 57.6 51.2 57.6h601.6c25.6 0 51.2-25.6 51.2-57.6s-25.6-57.6-51.2-57.6z m134.4 192H19.2c-12.8 0-19.2-12.8-19.2-25.6v-236.8c0-6.4 6.4-19.2 19.2-19.2h985.6c12.8 0 19.2 12.8 19.2 25.6V128c0 12.8-6.4 25.6-19.2 25.6z m-134.4 172.8H588.8c-25.6 0-51.2 25.6-51.2 57.6s25.6 57.6 51.2 57.6h275.2c25.6 0 51.2-25.6 51.2-57.6s-19.2-57.6-44.8-57.6z m134.4 198.4H19.2c-12.8 0-19.2-12.8-19.2-25.6v-236.8c0-12.8 6.4-25.6 19.2-25.6h985.6c12.8 0 19.2 12.8 19.2 25.6V499.2c0 12.8-6.4 25.6-19.2 25.6z"  horiz-adv-x="1024" />

    
    <glyph glyph-name="navPublic" unicode="&#60383;" d="M640 384c0-70.4-57.6-128-128-128s-128 57.6-128 128 57.6 128 128 128 128-57.6 128-128z m0-134.4c12.8-166.4-70.4-364.8-70.4-364.8s-25.6-12.8-57.6-12.8-51.2 12.8-51.2 12.8-89.6 198.4-76.8 364.8c0 0 19.2 70.4 128 70.4s128-70.4 128-70.4z m384 140.8c0-147.2-64-281.6-172.8-384-6.4-6.4-12.8-6.4-19.2-6.4-12.8 0-25.6 25.6-25.6 38.4 0 6.4 6.4 12.8 6.4 19.2C908.8 140.79999999999995 960 256 960 390.4 960 640 761.6 832 512 832S64 640 64 390.4c0-128 57.6-249.6 153.6-339.2 12.8-12.8 12.8-25.6 0-38.4-12.8-12.8-38.4-19.2-44.8-6.4C64 102.39999999999998 0 243.20000000000005 0 390.4 0 665.6 230.4 896 512 896s512-230.4 512-505.6z m-192 6.4c0-70.4-25.6-140.8-70.4-192-6.4-6.4-12.8-6.4-19.2-12.8-12.8 0-32 19.2-38.4 32 0 6.4 0 12.8 6.4 19.2 38.4 44.8 57.6 96 57.6 153.6C768 537.6 659.2 640 512 640S256 537.6 256 396.8c0-57.6 19.2-108.8 57.6-153.6 6.4-12.8 6.4-32-6.4-38.4-12.8-6.4-32-12.8-44.8 0C217.6 256 192 326.4 192 396.8 192 563.2 332.8 704 512 704s320-140.8 320-307.2z"  horiz-adv-x="1024" />

    
    <glyph glyph-name="nothing" unicode="&#60384;" d="M665.6 588.8c-6.4 25.6-32 44.8-64 44.8-38.4 0-64-25.6-64-64v-108.8l128 128z m-313.6-409.6c6.4-32 32-44.8 64-44.8 38.4 0 64 25.6 64 70.4V307.20000000000005l-128-128z m0 89.6l128 128v192c0 70.4 57.6 108.8 128 108.8 51.2 0 89.6-19.2 108.8-51.2l38.4 44.8 44.8-51.2-70.4-70.4V384h-64V505.6l-128-128V192c0-70.4-57.6-121.6-128-121.6-44.8 0-89.6 19.2-108.8 57.6l-32-32-44.8 44.8 57.6 57.6V512c-38.4 12.8-64 44.8-64 89.6 0 51.2 44.8 96 96 96s96-44.8 96-96c0-38.4-25.6-76.8-64-89.6v-243.2z"  horiz-adv-x="1024" />

    
    <glyph glyph-name="personM" unicode="&#60385;" d="M768 160c38.4 0 64 25.6 64 64s-25.6 64-64 64-64-25.6-64-64 25.6-64 64-64z m192 172.8v-217.6L768 0l-192 115.2V332.79999999999995L768 448l192-115.2zM396.8 832c121.6 0 224-102.4 224-224S524.8 384 396.8 384C275.2 384 179.2 486.4 179.2 608S275.2 832 396.8 832zM512 320v-236.8l256-147.2H64v217.6C64 249.60000000000002 140.8 320 236.8 320H512z"  horiz-adv-x="1024" />

    
    <glyph glyph-name="f" unicode="&#60387;" d="M569.6 518.4l-12.8-51.2c64 0 108.8-12.8 147.2-32 44.8-25.6 64-70.4 70.4-121.6-6.4-102.4-134.4-185.6-249.6-160-19.2 32-38.4 76.8-38.4 76.8l51.2 38.4c12.8-25.6 32-57.6 51.2-70.4 25.6-25.6 51.2-6.4 70.4 0 32 12.8 64 25.6 64 70.4-6.4 38.4-25.6 70.4-70.4 89.6-32 0-76.8 6.4-134.4 12.8h-19.2l64 230.4h153.6c12.8-12.8 32-38.4 44.8-57.6l-6.4-25.6H569.6z m-288-345.6c6.4 6.4 12.8 19.2 12.8 32V428.8H256v32h38.4c-12.8 102.4 76.8 153.6 172.8 153.6 32 0 44.8-12.8 70.4-38.4l-25.6-51.2S428.8 595.2 416 595.2c-19.2 0-32-19.2-32-51.2v-83.2h96v-25.6H384v-211.2c-6.4-38.4 12.8-57.6 57.6-51.2v-12.8H307.2c0-6.4-12.8 6.4-25.6 12.8zM512-128c281.6 0 512 230.4 512 512s-230.4 512-512 512-512-230.4-512-512 230.4-512 512-512z"  horiz-adv-x="1024" />

    
    <glyph glyph-name="navTopo" unicode="&#60354;" d="M345.795773 496.549838s76.085745-6.340479 88.766702 82.426224c88.766703-12.680958 183.873884-38.042873 266.300108-82.426224 0 0-25.361915-88.766703 44.383351-133.150053-63.404788-82.426224-145.831011-145.831011-240.938192-190.214363-19.021436 44.383351-69.745266 69.745266-120.469097 63.404787 0-6.340479-38.042873 63.404788-38.042872 259.959629z m44.383351 196.554842s38.042873-31.702394 38.042873-57.064309c107.788139-12.680958 209.235799-44.383351 298.002501-95.107181 0 0 63.404788 50.72383 120.469097 12.680957 25.361915 57.064309 38.042873 114.128618 38.042872 171.192927 0 0-120.469096 164.852448-380.428725 171.192926 6.340479-6.340479-95.107181-145.831011-114.128618-202.89532z m545.281173-38.042873s126.809575-145.831011 69.745266-399.450161c0 0-69.745266 114.128618-107.788138 139.490532 0 0 31.702394 63.404788-6.340479 107.788139 25.361915 50.72383 38.042873 101.44766 44.383351 152.17149z m-456.51447-602.345482s19.021436 6.340479 31.702393 63.404788c114.128618 44.383351 215.576278 126.809575 285.321544 228.257235 19.021436 0 44.383351 6.340479 57.064309 19.021437 50.72383-50.72383 95.107181-114.128618 120.469097-177.533406-57.064309-139.490533-177.533405-247.278671-323.364417-291.662022-63.404788 38.042873-120.469096 95.107181-171.192926 158.511968z m-361.407289 6.340479S257.02907-156.51947300000006 574.053008-124.81708000000003c-50.72383 44.383351-95.107181 95.107181-139.490533 139.490533 0 0-88.766703-19.021436-120.469096 38.042872-63.404788 0-133.150054 0-196.554841 6.340479z m107.788138 507.238301c-76.085745-19.021436-145.831011-44.383351-215.576277-88.766703-25.361915-120.469096 0-247.278671 63.404787-355.06681 69.745266-12.680958 145.831011-19.021436 215.576278-12.680958 0 38.042873 12.680958 76.085745 44.383351 101.44766-31.702394 88.766703-44.383351 190.214363-38.042872 285.321544-38.042873 12.680958-63.404788 38.042873-69.745267 69.745267z m-190.214362-12.680958C98.517101 724.8070740000001 250.688591 851.616649 434.562475 883.319042c-38.042873-57.064309-69.745266-114.128618-95.107181-177.533405-57.064309 6.340479-107.788139-31.702394-114.128618-82.426223-69.745266-12.680958-133.150054-38.042873-190.214362-69.745267z"  horiz-adv-x="1029" />

    
    <glyph glyph-name="flow" unicode="&#60392;" d="M870.4 332.79999999999995h-108.8c-12.8 0-25.6 6.4-32 19.2l-32 83.2-70.4-211.2c-6.4-12.8-19.2-19.2-32-25.6-12.8 0-25.6 6.4-32 19.2L486.4 371.20000000000005l-19.2-25.6c0-12.8-12.8-12.8-25.6-12.8H153.6c-19.2 0-32 19.2-32 38.4s12.8 38.4 32 38.4h262.4l38.4 64c6.4 12.8 19.2 12.8 32 12.8s25.6-6.4 32-19.2L588.8 320l76.8 224c6.4 12.8 19.2 19.2 32 19.2s25.6 0 32-12.8l51.2-147.2h83.2c19.2 0 32-19.2 32-38.4 6.4-19.2-12.8-32-25.6-32zM512 832C262.4 832 64 633.6 64 384s198.4-448 448-448 448 198.4 448 448-198.4 448-448 448z"  horiz-adv-x="1024" />

    
    <glyph glyph-name="endEquipment" unicode="&#60393;" d="M672 448h64v-384h-64V448z m-128 0h64v-384h-64V448z m-128 0h64v-384h-64V448z m-128 0h64v-384h-64V448z m640-512h-832V576h121.6V704h134.4V832h320v-128h128v-128h128v-640z m-64 832h-128V896h-448v-128h-128v-128h-128v-768h960V640h-128V768z"  horiz-adv-x="1024" />

    
    <glyph glyph-name="hp" unicode="&#60394;" d="M819.2 556.8c0 6.4 0 6.4 0 0l-70.4 6.4c-6.4 0-6.4 0-12.8-6.4l-121.6-345.6h76.8l128 345.6c6.4 0 6.4 0 0 0zM512 896h-38.4L377.6 620.8h83.2c64 0 83.2-51.2 70.4-102.4l-128-352h-128l134.4 390.4h-64l-134.4-390.4h-128L339.2 864C140.8 793.6 0 608 0 384c0-243.2 166.4-441.6 390.4-499.2l262.4 736h204.8c44.8 0 96-25.6 70.4-96-19.2-64-102.4-288-115.2-326.4-12.8-44.8-51.2-51.2-76.8-51.2h-128L512-128c281.6 0 512 230.4 512 512s-230.4 512-512 512z"  horiz-adv-x="1024" />

    
    <glyph glyph-name="mapping" unicode="&#60397;" d="M838.4 832c12.8 38.4 51.2 64 89.6 64 51.2 0 96-44.8 96-96S979.2 704 928 704c-44.8 0-76.8 25.6-89.6 64H185.6c-6.4-25.6-32-51.2-57.6-57.6v-652.8c25.6-12.8 51.2-32 57.6-57.6H320v-64H185.6c-12.8-38.4-51.2-64-89.6-64-51.2 0-96 44.8-96 96 0 44.8 25.6 76.8 64 89.6V710.4c-38.4 12.8-64 44.8-64 89.6C0 851.2 44.8 896 96 896c44.8 0 76.8-25.6 89.6-64h652.8z m-32-384l96-96c12.8-19.2 12.8-44.8 0-57.6l-275.2-275.2-32-32-160 153.6 32 32 76.8 70.4L748.8 448c12.8 19.2 44.8 19.2 57.6 0z m-409.6-499.2l172.8 12.8-160 153.6-12.8-166.4z m505.6 614.4c-12.8 12.8-32 12.8-38.4 0l-38.4-38.4c-12.8-12.8-12.8-32 0-38.4l115.2-115.2c12.8-12.8 32-12.8 38.4 0l38.4 38.4c6.4 12.8 6.4 25.6 0 38.4l-115.2 115.2z"  horiz-adv-x="1024" />

    
    <glyph glyph-name="Thread" unicode="&#60398;" d="M352 518.4V192c0-38.4 25.6-64 64-64s64 25.6 64 64V582.4c0 70.4 57.6 121.6 128 121.6s128-51.2 128-121.6V128h-64V569.6c0 44.8-25.6 70.4-64 70.4s-64-25.6-64-70.4v-390.4c0-70.4-57.6-115.2-128-115.2s-128 44.8-128 115.2V518.4c-38.4 12.8-64 51.2-64 89.6C224 659.2 268.8 704 320 704s96-44.8 96-96c0-44.8-25.6-76.8-64-89.6z m256-358.4c0 51.2 44.8 96 96 96s96-44.8 96-96S755.2 64 704 64s-96 44.8-96 96z"  horiz-adv-x="1024" />

    
    <glyph glyph-name="navPrivate" unicode="&#60399;" d="M576 64c0-25.6-12.8-44.8-32-51.2v-108.8c0-12.8-12.8-25.6-25.6-25.6s-25.6 12.8-25.6 25.6v108.8c-19.2 6.4-32 32-32 51.2 0 25.6 12.8 44.8 32 51.2v57.6c-19.2 6.4-32 32-32 51.2 0 32 25.6 57.6 57.6 57.6 32 6.4 57.6-19.2 57.6-51.2 0-25.6-12.8-44.8-32-51.2v-57.6c19.2-12.8 32-32 32-57.6z m320-140.8l-172.8 473.6c-12.8 44.8-25.6 64-64 44.8L512 364.79999999999995s-115.2 64-147.2 76.8c-25.6 12.8-44.8 6.4-57.6-38.4l-172.8-473.6c-12.8-32 0-51.2 32-51.2h697.6c32-6.4 38.4 12.8 32 44.8zM300.8 684.8c0-115.2 96-211.2 211.2-211.2 115.2 0 211.2 96 211.2 211.2C723.2 800 627.2 896 512 896 396.8 896 300.8 800 300.8 684.8z"  horiz-adv-x="1024" />

    
    <glyph glyph-name="switchType" unicode="&#60402;" d="M537.6 768v-185.6H64v-153.6h896L588.8 793.6c-12.8 6.4-32 6.4-44.8 0 0-6.4-6.4-12.8-6.4-25.6z m-51.2-768v185.6H960V332.79999999999995H64l371.2-358.4c12.8-12.8 32-12.8 44.8 0 0 6.4 6.4 12.8 6.4 25.6z"  horiz-adv-x="1024" />

    
    <glyph glyph-name="matchRules" unicode="&#60403;" d="M435.439252 896h146.741433c25.520249 0 44.660436-19.140187 44.660436-44.660436 0-25.520249-19.140187-44.660436-44.660436-44.660436H435.439252c-25.520249 0-44.660436 19.140187-44.660436 44.660436 0 25.520249 19.140187 44.660436 44.660436 44.660436zM282.317757 130.39252299999998h452.984424c19.140187 0 38.280374 19.140187 38.280374 44.660437s-19.140187 44.660436-38.280374 44.660436H282.317757c-19.140187 0-38.280374-19.140187-38.280374-44.660436s19.140187-44.660436 38.280374-44.660437z m0 204.161994h452.984424c19.140187 0 38.280374 19.140187 38.280374 44.660436 0 25.520249-19.140187 44.660436-38.280374 44.660436H282.317757c-19.140187 0-38.280374-19.140187-38.280374-44.660436 0-25.520249 19.140187-44.660436 38.280374-44.660436z m0 210.542056h452.984424c19.140187 0 38.280374 19.140187 38.280374 44.660436 0 25.520249-19.140187 44.660436-38.280374 44.660436H282.317757c-19.140187 0-38.280374-19.140187-38.280374-44.660436 0-25.520249 19.140187-44.660436 38.280374-44.660436z m-210.542056-631.626168V857.719626c0 19.140187 12.760125 38.280374 31.900311 38.280374h133.981309c19.140187 0 31.900312-6.380062 38.280374-19.140187l63.800623-127.601246h357.283489l63.800623 127.601246c0 12.760125 12.760125 19.140187 25.520249 19.140187h133.981309c19.140187 0 38.280374-19.140187 38.280373-38.280374v-944.249221c0-25.520249-12.760125-44.660436-38.280373-31.900312l-114.841122 57.420561-63.800623-57.420561c-12.760125-12.760125-31.900312-12.760125-44.660436 0L620.461059-61.00934600000005l-70.180685-57.420561c-12.760125-12.760125-31.900312-12.760125-44.660436 0L416.299065-61.00934600000005l-89.320872-57.420561c-12.760125-6.380062-31.900312-6.380062-44.660436 6.380063l-57.420561 51.040498-82.94081-57.420561c-25.520249-19.140187-70.180685 0-70.180685 31.900312z"  horiz-adv-x="1024" />

    
    <glyph glyph-name="message" unicode="&#60406;" d="M512 179.20000000000005V281.6H204.8v-102.4H512zM819.2 384V486.4H204.8V384h614.4z m0 204.8V691.2H204.8v-102.4h614.4z m32 307.2c38.4 0 70.4-38.4 70.4-83.2v-857.6c0-44.8-32-83.2-70.4-83.2H172.8c-38.4 0-70.4 38.4-70.4 83.2V812.8C102.4 857.6 134.4 896 172.8 896h678.4z"  horiz-adv-x="1024" />

    
    <glyph glyph-name="navMonitorConf" unicode="&#60352;" d="M198.4 64h627.2c38.4 0 70.4-25.6 70.4-64s-32-64-70.4-64H198.4c-38.4 0-70.4 25.6-70.4 64s32 64 70.4 64z m140.8 364.8l64 128 140.8-262.4c25.6-51.2 89.6-51.2 121.6-6.4l89.6 121.6h89.6c25.6 0 51.2 25.6 51.2 51.2 0 32-25.6 51.2-51.2 51.2h-115.2c-19.2 0-32-6.4-44.8-19.2L614.4 390.4 460.8 665.6c-25.6 51.2-96 51.2-121.6 0L262.4 505.6H179.2c-25.6 0-51.2-25.6-51.2-51.2s25.6-51.2 51.2-51.2h115.2c19.2 0 38.4 6.4 44.8 25.6zM70.4 832H960c32 0 64-25.6 64-64v-576c0-32-32-64-70.4-64H70.4C32 128 0 153.60000000000002 0 192V768c0 38.4 32 64 70.4 64z"  horiz-adv-x="1024" />

    
    <glyph glyph-name="Secondary" unicode="&#60407;" d="M384 518.4v-320c0-44.8 25.6-70.4 64-70.4s64 25.6 64 70.4V588.8C512 659.2 569.6 704 640 704s128-44.8 128-115.2V384h-64V576c0 38.4-25.6 64-64 64s-64-25.6-64-64v-390.4c0-70.4-57.6-121.6-128-121.6s-128 51.2-128 121.6V518.4c-38.4 12.8-64 44.8-64 89.6C256 659.2 300.8 704 352 704S448 659.2 448 608c0-44.8-25.6-76.8-64-89.6z"  horiz-adv-x="1024" />

    
    <glyph glyph-name="unmatchedLogs" unicode="&#60408;" d="M608 832h128v-192l-64 64-64-64V832z m-256 0h64v-896h-64V832z m-192 0v-896h704V832h-704z m0 64h704c38.4 0 64-25.6 64-64v-896c0-38.4-25.6-64-64-64h-704c-38.4 0-64 25.6-64 64V832c0 38.4 25.6 64 64 64z"  horiz-adv-x="1024" />

    
    <glyph glyph-name="netentsec" unicode="&#60409;" d="M422.4 473.6h492.8L550.4 838.4h416v-640h-275.2v-275.2H57.6V345.6l364.8-364.8V473.6zM0-128h1024V896H0v-1024z"  horiz-adv-x="1024" />

    
    <glyph glyph-name="notification" unicode="&#60410;" d="M854.646154 462.769231l110.276923-110.276923-421.415385-425.353846-90.584615-31.507693c-19.692308-7.876923-43.323077 3.938462-51.2 23.630769-3.938462 7.876923-3.938462 15.753846 0 23.63077l31.507692 90.584615L854.646154 462.769231zM86.646154 659.692308c3.938462 7.876923 7.876923 15.753846 15.753846 19.692307L291.446154 872.369231c7.876923 7.876923 15.753846 11.815385 23.630769 15.753846V659.692308H86.646154zM866.461538 139.815385V-49.23076900000001c0-43.323077-35.446154-78.769231-78.76923-78.769231h-189.046154l267.815384 267.815385z m0 445.046153L319.015385 37.415385000000015 295.384615-128H157.538462c-43.323077 0-78.769231 35.446154-78.769231 78.769231V580.9230769999999h275.692307c23.630769 0 39.384615 15.753846 39.384616 39.384615V896h393.846154c43.323077 0 78.769231-35.446154 78.76923-78.769231v-232.369231z"  horiz-adv-x="1024" />

    
    <glyph glyph-name="to" unicode="&#60411;" d="M505.6 153.60000000000002l160 172.8H243.2c-32 0-51.2 25.6-51.2 57.6s19.2 51.2 51.2 51.2h422.4L505.6 608c-19.2 19.2-19.2 57.6 0 76.8 19.2 19.2 51.2 19.2 70.4 0l243.2-262.4c6.4-6.4 12.8-19.2 12.8-38.4s-6.4-32-19.2-44.8l-236.8-256c-19.2-19.2-51.2-19.2-70.4 0-19.2 19.2-19.2 51.2 0 70.4z"  horiz-adv-x="1024" />

    
    <glyph glyph-name="other" unicode="&#60412;" d="M608-12.799999999999955h275.2c19.2 0 32-12.8 32-32s-12.8-32-32-32H608c6.4 12.8 6.4 19.2 6.4 32s0 19.2-6.4 32zM512 44.799999999999955c44.8 0 83.2-38.4 83.2-83.2 6.4-51.2-38.4-89.6-83.2-89.6-44.8 0-83.2 38.4-83.2 83.2 0 51.2 38.4 89.6 83.2 89.6z m-32 102.4h70.4v-134.4H480v134.4z m-345.6-160h275.2c-6.4-12.8-6.4-19.2-6.4-32s0-25.6 6.4-32H134.4c-19.2 0-32 12.8-32 32s12.8 32 32 32z m684.8 294.4c-19.2 0-32-12.8-32-32s12.8-32 32-32 32 12.8 32 32c0 12.8-12.8 32-32 32z m0 275.2c-19.2 0-32-12.8-32-32s12.8-32 32-32 32 12.8 32 32c0 12.8-12.8 32-32 32z m0 268.8c-19.2 0-32-12.8-32-32s12.8-32 32-32 32 12.8 32 32-12.8 32-32 32z m-134.4-544c-19.2 0-32-12.8-32-32s12.8-32 32-32 32 12.8 32 32c0 12.8-12.8 32-32 32z m0 275.2c-19.2 0-32-12.8-32-32s12.8-32 32-32 32 12.8 32 32c0 12.8-12.8 32-32 32z m0 268.8c-19.2 0-32-12.8-32-32s12.8-32 32-32 32 12.8 32 32-12.8 32-32 32zM544 281.6c-19.2 0-32-19.2-32-38.4s12.8-32 32-32 32 12.8 32 32c6.4 19.2-12.8 38.4-32 38.4z m0 275.2c-19.2 0-32-19.2-32-38.4s12.8-32 32-32 32 12.8 32 32c6.4 19.2-12.8 38.4-32 38.4z m0 268.8c-19.2 0-32-12.8-32-32s12.8-32 32-32 32 12.8 32 32c6.4 19.2-12.8 32-32 32z m332.8-134.4H147.2c-25.6 0-44.8 19.2-44.8 44.8V851.2c0 25.6 19.2 44.8 44.8 44.8h723.2c25.6 0 44.8-19.2 44.8-44.8v-115.2c6.4-25.6-12.8-44.8-38.4-44.8zM147.2 416c-25.6 0-44.8 19.2-44.8 44.8V576c0 25.6 19.2 44.8 44.8 44.8h723.2c25.6 0 44.8-19.2 44.8-44.8v-115.2c0-25.6-19.2-44.8-44.8-44.8H147.2z m729.6-268.8H147.2c-25.6 0-44.8 19.2-44.8 44.8V307.20000000000005c0 25.6 19.2 44.8 44.8 44.8h723.2c25.6 0 44.8-19.2 44.8-44.8V192c6.4-25.6-12.8-44.8-38.4-44.8z"  horiz-adv-x="1024" />

    
    <glyph glyph-name="friendlyField" unicode="&#60413;" d="M819.2 102.39999999999998H204.8c-19.2 0-32 12.8-32 32s12.8 32 32 32h608c19.2 0 32-12.8 32-32s-6.4-32-25.6-32zM198.4 665.6h236.8c12.8 0 25.6-12.8 25.6-32s-6.4-32-25.6-32H352v-294.4c0-19.2-12.8-32-32-32s-32 12.8-32 32V595.2H198.4c-19.2 0-25.6 19.2-25.6 32 0 19.2 6.4 32 25.6 38.4z m384-332.8h236.8c19.2-6.4 32-25.6 25.6-38.4 0-12.8-12.8-25.6-25.6-25.6H582.4c-19.2 6.4-32 25.6-25.6 44.8 6.4 12.8 12.8 19.2 25.6 19.2z m0 166.4h236.8c19.2 0 25.6-19.2 25.6-32 0-19.2-12.8-32-25.6-32H582.4c-19.2 0-25.6 12.8-25.6 32 0 12.8 6.4 32 25.6 32z m0 166.4h236.8c19.2 0 25.6-19.2 25.6-32 0-19.2-12.8-32-25.6-32H582.4c-19.2 0-25.6 19.2-25.6 32s6.4 25.6 25.6 32zM915.2 832H108.8c-25.6 0-44.8-19.2-44.8-44.8v-806.4c0-25.6 19.2-44.8 44.8-44.8h806.4c25.6 0 44.8 19.2 44.8 44.8V787.2c0 25.6-19.2 44.8-44.8 44.8z"  horiz-adv-x="1024" />

    
    <glyph glyph-name="navCollect" unicode="&#60350;" d="M838.143977 896H185.856023c-51.15984 0-89.529719-38.36988-89.529719-89.529719v-844.137352c0-63.949799 57.554819-95.924699 89.529719-89.52972l319.748997 89.52972L831.748997-127.19679099999996c31.9749-6.39498 89.529719 25.57992 89.529719 89.52972V806.470281c6.39498 51.15984-31.9749 89.529719-83.134739 89.529719z m-102.319679-415.673696L639.899599 384.401605l25.57992-134.294579c0-6.39498 0-12.78996-6.39498-19.18494-6.39498-6.39498-12.78996-6.39498-19.18494 0l-127.899599 63.9498-121.504619-63.9498H384.100401c-6.39498 0-6.39498 0-12.78996 6.39498s-6.39498 12.78996-6.39498 19.18494L384.100401 384.401605 288.175702 480.326304c-6.39498 6.39498-6.39498 12.78996-6.39498 19.18494s12.78996 12.78996 19.18494 12.78996l134.294579 19.184939 57.554819 121.504619c6.39498 6.39498 12.78996 12.78996 19.18494 12.78996 6.39498 0 12.78996-6.39498 19.18494-12.78996l57.554819-121.504619 134.294579-19.184939c6.39498 0 12.78996-6.39498 12.78996-12.78996s6.39498-12.78996 0-19.18494z"  horiz-adv-x="1024" />

    
    <glyph glyph-name="vendorConfiguration" unicode="&#60414;" d="M569.6 441.6H960V-64h-115.2v224h-166.4V-64H569.6V441.6z m0 108.8H960v-57.6H569.6v57.6zM345.6 268.79999999999995v-108.8h115.2V268.79999999999995H345.6z m-224 0v-108.8h115.2V268.79999999999995H121.6zM345.6 384h108.8V492.8H345.6V384zM121.6 492.8V384h108.8V492.8H121.6z m224 224v-108.8h115.2V716.8H345.6z m-224 0v-108.8h115.2V716.8H121.6zM64 832h448v-896H64V832z"  horiz-adv-x="1024" />

    
    <glyph glyph-name="pauseAlarm" unicode="&#60415;" d="M352 678.4c25.6 25.6 64 38.4 102.4 51.2l25.6 6.4v57.6c0 12.8 6.4 38.4 32 38.4s38.4-25.6 38.4-38.4v-57.6l25.6-6.4c57.6-12.8 108.8-51.2 147.2-102.4 32-44.8 44.8-102.4 44.8-166.4v-198.4l76.8-76.8-12.8 19.2v256c0 38.4-6.4 76.8-12.8 108.8-12.8 32-25.6 64-44.8 96-38.4 57.6-96 96-160 121.6v6.4c0 19.2-6.4 44.8-25.6 64C569.6 883.2 544 896 512 896c-25.6 0-57.6-12.8-76.8-32-12.8-19.2-25.6-44.8-25.6-64v-12.8c-38.4-19.2-70.4-38.4-102.4-64l44.8-44.8zM185.6 64L256 192V467.2c0 38.4 6.4 76.8 19.2 108.8l512-512H185.6zM512-64c-38.4 0-64 25.6-64 64h128c0-32-25.6-64-64-64zM147.2 793.6c-12.8 12.8-32 12.8-44.8 0-12.8-12.8-12.8-32 0-44.8l121.6-121.6C204.8 576 192 524.8 192 460.8v-256l-76.8-134.4c-6.4-12.8-6.4-32 0-44.8 12.8-19.2 25.6-25.6 44.8-25.6H384c0-70.4 57.6-128 128-128s128 57.6 128 128h211.2l57.6-57.6c6.4-6.4 12.8-6.4 25.6-6.4 6.4 0 19.2 0 25.6 6.4 12.8 12.8 12.8 32 0 44.8L147.2 793.6z m838.4-275.2c-6.4 12.8-25.6 19.2-44.8 12.8-12.8-6.4-19.2-25.6-12.8-44.8 25.6-32 32-70.4 32-102.4s-6.4-70.4-25.6-96c-6.4-12.8-6.4-32 12.8-44.8 6.4 0 12.8-6.4 19.2-6.4 12.8 0 19.2 6.4 25.6 12.8 19.2 44.8 32 89.6 32 134.4 0 44.8-12.8 89.6-38.4 134.4zM83.2 524.8c-19.2 12.8-38.4 6.4-44.8-6.4C12.8 473.6 0 428.8 0 384c0-44.8 12.8-89.6 38.4-134.4 6.4-12.8 19.2-12.8 25.6-12.8 6.4 0 12.8 0 19.2 6.4 12.8 6.4 19.2 25.6 12.8 44.8-25.6 25.6-32 64-32 96s6.4 70.4 25.6 96c12.8 19.2 6.4 38.4-6.4 44.8z"  horiz-adv-x="1024" />

    
    <glyph glyph-name="navThreadConf" unicode="&#60351;" d="M352 518.4c38.4 12.8 64 51.2 64 89.6C416 659.2 371.2 704 320 704s-96-44.8-96-96c0-44.8 25.6-76.8 64-89.6v-339.2c0-70.4 57.6-115.2 128-115.2s128 44.8 128 115.2V569.6c0 44.8 25.6 70.4 64 70.4s64-25.6 64-70.4V256c-38.4-12.8-64-51.2-64-89.6 0-51.2 44.8-96 96-96s96 44.8 96 96c0 44.8-25.6 76.8-64 89.6V582.4c0 76.8-57.6 121.6-128 121.6s-128-51.2-128-121.6V192c0-38.4-25.6-64-64-64s-64 25.6-64 64V518.4zM128 896h768c38.4 0 64-25.6 64-64v-896c0-38.4-25.6-64-64-64H128c-38.4 0-64 25.6-64 64V832c0 38.4 25.6 64 64 64z"  horiz-adv-x="1024" />

    
    <glyph glyph-name="deviceRole" unicode="&#60416;" d="M704 134.39999999999998c51.2 0 83.2 38.4 83.2 83.2 0 44.8-38.4 83.2-83.2 83.2-44.8 0-83.2-38.4-83.2-83.2 0-44.8 38.4-83.2 83.2-83.2z m249.6 19.2c6.4-6.4 6.4-12.8 6.4-12.8l-51.2-89.6c-6.4-6.4-6.4-6.4-19.2-6.4l-64 25.6c-12.8-6.4-25.6-19.2-44.8-25.6l-6.4-64c0-6.4-6.4-12.8-12.8-12.8h-108.8c-6.4 0-12.8 6.4-12.8 12.8l-6.4 64c-19.2 6.4-32 12.8-44.8 25.6l-64-25.6c-6.4 0-12.8 0-19.2 6.4L448 134.39999999999998c-6.4 6.4 0 12.8 0 12.8l57.6 44.8v25.6 25.6l-51.2 38.4C448 288 448 294.4 448 300.79999999999995L505.6 384c0 6.4 6.4 6.4 12.8 6.4l64-25.6c19.2 12.8 32 19.2 44.8 25.6l6.4 64c0 6.4 6.4 12.8 12.8 12.8h108.8c6.4 0 12.8-6.4 12.8-12.8l6.4-64c12.8-6.4 32-12.8 44.8-25.6l64 25.6c6.4 0 12.8 0 19.2-6.4l57.6-83.2c6.4-6.4 0-12.8 0-12.8l-64-44.8v-51.2l57.6-38.4z m-480-179.2l-390.4 204.8c-12.8 6.4-19.2 25.6-12.8 44.8 0 6.4 6.4 12.8 12.8 12.8l115.2 64-115.2 64c-19.2 0-25.6 19.2-12.8 32 6.4 6.4 6.4 12.8 12.8 12.8l115.2 64-115.2 64C64 544 57.6 563.2 70.4 576c0 6.4 6.4 12.8 12.8 12.8l396.8 204.8c12.8 6.4 19.2 6.4 32 0l396.8-204.8c12.8-6.4 19.2-25.6 12.8-44.8-6.4-6.4-6.4-12.8-12.8-12.8l-44.8-19.2c-44.8 25.6-102.4 38.4-160 38.4-134.4 0-249.6-76.8-300.8-179.2l-128 70.4-108.8-57.6c64-38.4 134.4-70.4 204.8-102.4-6.4-19.2-6.4-38.4-6.4-64 0-96 38.4-185.6 108.8-243.2z"  horiz-adv-x="1024" />

    
    <glyph glyph-name="networkInfo" unicode="&#60417;" d="M236.8 115.20000000000005c51.2-51.2 115.2-89.6 185.6-102.4-38.4 44.8-64 96-76.8 147.2-38.4-12.8-76.8-32-108.8-44.8z m70.4 249.6H128c6.4-83.2 32-160 89.6-224 38.4 19.2 76.8 38.4 115.2 51.2-12.8 57.6-19.2 115.2-25.6 172.8zM332.8 576c-38.4 12.8-83.2 32-115.2 51.2-57.6-64-83.2-140.8-89.6-224h179.2c6.4 57.6 12.8 115.2 25.6 172.8z m198.4-396.8V0c44.8 12.8 89.6 70.4 115.2 166.4-38.4 6.4-76.8 12.8-115.2 12.8z m160 12.8c38.4-12.8 83.2-32 121.6-51.2 51.2 64 83.2 140.8 89.6 224h-185.6c-6.4-57.6-12.8-115.2-25.6-172.8zM422.4 761.6c-70.4-19.2-134.4-57.6-185.6-108.8 32-12.8 70.4-32 102.4-38.4 19.2 51.2 44.8 102.4 83.2 147.2z m179.2-755.2c70.4 19.2 134.4 51.2 185.6 102.4-32 19.2-70.4 32-102.4 44.8-19.2-51.2-44.8-102.4-83.2-147.2z m-108.8-6.4v179.2c-38.4 0-83.2-6.4-121.6-19.2 32-89.6 76.8-147.2 121.6-160z m-128 198.4c44.8 12.8 83.2 19.2 128 19.2V364.79999999999995H345.6c0-57.6 6.4-115.2 19.2-166.4z m313.6 166.4H531.2v-147.2c44.8 0 83.2-6.4 128-19.2 12.8 57.6 19.2 108.8 19.2 166.4z m-332.8 38.4h147.2V550.4c-44.8 0-83.2 6.4-128 19.2-12.8-51.2-19.2-108.8-19.2-166.4z m364.8 0H896c-6.4 83.2-32 160-89.6 224-38.4-19.2-76.8-38.4-121.6-51.2 19.2-57.6 25.6-115.2 25.6-172.8z m76.8 249.6c-51.2 51.2-115.2 89.6-185.6 108.8 38.4-44.8 64-96 76.8-147.2 38.4 6.4 76.8 25.6 108.8 38.4z m-409.6-51.2c38.4-12.8 76.8-12.8 121.6-19.2V768c-51.2-12.8-96-70.4-121.6-166.4zM531.2 768v-179.2c38.4 0 76.8 6.4 115.2 12.8C620.8 691.2 576 755.2 531.2 768z m128-198.4c-44.8-12.8-83.2-12.8-128-19.2v-153.6h147.2c0 64-6.4 115.2-19.2 172.8z"  horiz-adv-x="1024" />

    
    <glyph glyph-name="filteringRules" unicode="&#60374;" d="M723.2 83.20000000000005h217.6c25.6 0 44.8-19.2 44.8-44.8s-19.2-38.4-44.8-38.4h-217.6c-25.6 0-44.8 19.2-44.8 44.8s19.2 38.4 44.8 38.4z m0 166.4h217.6c25.6 0 44.8-19.2 44.8-44.8 0-25.6-19.2-44.8-44.8-44.8h-217.6c-25.6 0-44.8 19.2-44.8 44.8 0 32 19.2 44.8 44.8 44.8z m0 172.8h217.6c25.6 0 44.8-19.2 44.8-44.8 0-25.6-19.2-44.8-44.8-44.8h-217.6c-25.6 0-44.8 19.2-44.8 44.8 0 25.6 19.2 44.8 44.8 44.8zM940.8 896H70.4C38.4 883.2 32 864 51.2 838.4l236.8-358.4v-358.4c140.8-153.6 211.2-236.8 217.6-243.2 32-12.8 64 12.8 64 51.2V473.6s332.8 281.6 403.2 358.4c25.6 38.4 0 64-32 64z"  horiz-adv-x="1024" />

    
    <glyph glyph-name="peakValue" unicode="&#60376;" d="M300.8 128c-19.2-6.4-38.4 6.4-44.8 32-6.4 19.2 6.4 44.8 32 44.8 294.4 64 409.6 236.8 467.2 531.2 6.4 19.2 25.6 38.4 44.8 32 19.2-6.4 32-25.6 32-44.8-70.4-326.4-204.8-524.8-531.2-595.2z m-108.8-57.6h672v140.8l166.4-166.4-166.4-166.4v115.2H192v-76.8c0-25.6-12.8-44.8-38.4-44.8s-38.4 19.2-38.4 38.4v76.8H38.4c-19.2 0-38.4 19.2-38.4 38.4s19.2 38.4 38.4 38.4h76.8V729.6H0L166.4 896l166.4-166.4H192v-659.2z"  horiz-adv-x="1030" />

    


  </font>
</defs>
</svg>
